<svg xmlns="http://www.w3.org/2000/svg" viewBox="0 0 4680 3120"><defs><clipPath id="a"><path fill="none" d="M1136.92 1713.15c-13.15 7.4-21.58 20-21.58 20-3.1 24 53.51 59.51 53.51 59.51s10.59-20.58 29.83-51.59c-23.05-38.15-45.85-36.89-61.76-27.92Z"/></clipPath></defs><g data-name="2"><path fill="#ffcecd" d="M3935.19 2028.49q-1.32-28-4.65-54.63a727.42 727.42 0 0 0-42.31-169.62q-8.14-21.42-17.26-41.77c-87-195-233.32-318.21-258.66-394.77-34.92-105.54 205.56-288.62 166.32-512-58.94-335.49-299.22-453.37-571.51-487.76-190.58-24.08-463.3 5.81-673.88 102.9-95.2 43.89-188.6 97.83-285.82 135.83-178.93-124.73-414.78-200.53-673.26-200.53-559.25 0-1012.61 354.81-1012.61 792.48 0 196.66 91.56 376.59 243.11 515.12a343.55 343.55 0 0 1 12.91 36.06c1.74 6 3.25 12.07 4.48 18.17 8 39.3 4.75 81.3-18 139.92-57 146.9-164.43 420.2 75.44 576.48a501.38 501.38 0 0 0 73 38.94q12.28 5.37 25.4 10.43 9.68 3.74 19.81 7.29l.31.08 7.35 1.95c5.36 1.41 13.23 3.48 22.65 5.94 7.92 2.06 16.94 4.4 26.48 6.84 10.43 2.68 21.48 5.48 32.4 8.22 24.85 6.21 49.06 12 63.8 14.94l1.69.33c574.58 110.84 1723.78 240.2 2340.36 40.22 114.13-37 201.61-85.18 267.47-141.67q15.69-13.47 29.77-27.55 12.54-12.51 23.84-25.51 13.41-15.39 25.15-31.41c.12-.15.23-.31.34-.47a468.4 468.4 0 0 0 42.92-71c43.56-88.88 57.58-187.87 53.1-290.75Z" class="colorffcecd svgShape"/><path fill="#4ab4cb" d="M2377.58 551.17H822.05A108.88 108.88 0 0 0 713.15 660v1028.58a108.92 108.92 0 0 0 108.9 108.91h1557.11a108.93 108.93 0 0 0 107.33-108.9V660a108.88 108.88 0 0 0-108.91-108.83Z" class="color4ab4cb svgShape"/><path fill="#4ac6dc" d="M2377.58 1797.49h1.58a108.93 108.93 0 0 0 107.33-108.9v-429.96l-924.89 538.86ZM2377.58 551.17h-341.29l-1323.14 537.5v501.23l1773.34-749.5V660a108.88 108.88 0 0 0-108.91-108.83Z" class="color4ac6dc svgShape"/><path fill="#2f709b" d="M2377.59 551.17H822.06A108.87 108.87 0 0 0 713.15 660v50.9h1773.34V660a108.87 108.87 0 0 0-108.9-108.83Z" class="color2f709b svgShape"/><circle cx="2179.47" cy="634.43" r="22.84" fill="#ea5052" class="colorea5052 svgShape"/><circle cx="2278.42" cy="634.43" r="22.84" fill="#ffc83e" transform="rotate(-67.5 2278.425 634.422)" class="colorffc83e svgShape"/><circle cx="2377.38" cy="634.43" r="22.84" fill="#3ecaa1" class="color3ecaa1 svgShape"/><rect width="755.82" height="755.82" x="855.81" y="799.07" fill="#ffb6cd" rx="96.59" class="colorffb6cd svgShape"/><circle cx="1430.86" cy="990.05" r="68.87" fill="#ffffff" transform="rotate(-67.5 1430.86 990.057)" class="colorfff svgShape"/><path fill="#f43d77" d="M1490.36 1281.11c-52.38 18.91-119.91 91.1-161.63 76.75-50-17.17-78-135.1-102.55-183.67-41.57-82.06-83.92-126.48-168-137.5-62.09-8.12-138 5.3-202.35 36.44v385.17a96.58 96.58 0 0 0 96.59 96.59h562.65a96.58 96.58 0 0 0 96.58-96.59v-163.2c-36.72-20.95-79.41-29.1-121.29-13.99Z" class="colorf43d77 svgShape"/><path fill="#ffffff" d="M1741.84 855.93h646.84v35.04h-646.84zM1741.84 943.15h646.84v35.04h-646.84zM1741.84 1030.38h646.84v35.04h-646.84zM1741.84 1117.61h646.84v35.04h-646.84zM1741.84 1204.84h646.84v35.04h-646.84zM1741.84 1292.07h646.84v35.04h-646.84zM1741.84 1379.3h646.84v35.04h-646.84zM1741.84 1466.53h224.61v35.04h-224.61zM1249.11 1638.32h446.26v-403.51h-446.26Zm5.79-397.71h434.68v391.91H1254.9Z" class="colorfff svgShape"/><path fill="#ffffff" d="M1239.53 1225.23h24.95v24.95h-24.95zM1239.53 1622.94h24.95v24.95h-24.95zM1680 1225.23h24.95v24.95H1680zM1459.78 1225.23h24.95v24.95h-24.95zM1459.78 1622.94h24.95v24.95h-24.95zM1239.53 1424.09h24.95v24.95h-24.95zM1680 1424.09h24.95v24.95H1680zM1680 1622.94h24.95v24.95H1680zM1505.4 1264.86h-38.58l-120 323.22h-22.11v8.92h72v-8.94h-35.29l36.23-101.62h93.15l34.34 101.62h-33.4v8.94h153.86v-8.94H1624Zm-103.51 211.25 44.23-123.27 40.93 123.27Z" class="colorfff svgShape"/><path fill="#5b1e13" d="M2813.77 759.29c28.67-10.42 0-35.18-20.85-19.54-31.27-56-73-91.21-48.21-11.73-86-83.39-164.18-87.3-207.18-82.09s-40.39 66.45-7.82 83.39c-118.57-27.36-166.78 67.76-62.54 92.52-50.82 14.33-110.76 88.6 73 88.6 161.57 9.12 185 153.76 185 153.76l16.9 5.64a66.52 66.52 0 0 0 85.51-46.68l1.83-7.17s35.18-54.73 32.57-110.76c31.27 45.6 67.76-48.23-48.21-145.94Z" class="color5b1e13 svgShape"/><path fill="#5b1e13" d="M2671.37 716.29a419.24 419.24 0 0 1 77.63 47.89l-4.29-36.18c-86-83.4-164.18-87.31-207.18-82.09s-40.4 66.46-7.82 83.39c-118.57-27.36-166.78 67.76-62.54 92.52-47.1 13.29-102 78.06 36.53 87.45a43.75 43.75 0 0 0 0 6.36c1.44 19.35 4 62 5.69 105.7l206.92 49.71c12.3-82.44 20.93-182 20.93-182s-44.06-44.7 9.26-75c-71.83-28.37-120.5-119.24-75.13-97.75Z" class="color5b1e13 svgShape"/><path fill="#ea5052" d="M3243.09 1417s-81.87-158.73-234.49-180c-64.47-9-121.89-22.53-175.86-31.73q-2.82-.49-5.61-.94-6.4-1.06-12.74-2c-45.9-7-89.53-9.93-133.2-3.08-44.7 7-98.12 19.33-128.45 26.69-14.9 3.62-24.23 6-24.23 6l-162.73 42.45s-82.88 22.24-129.37 104.11-165.76 382-165.76 382h250.66l6.06 372h849s50.58 37.23 113.34 46.14c36.43 5.17 77 .8 114.08-25.93 36.57-26.33 55.28-64.31 62.82-105.71 13.31-73-8.1-156.57-27.45-205.59-30.31-76.77-196.07-424.41-196.07-424.41Z" class="colorea5052 svgShape"/><path fill="#c62310" d="M3397.73 1870a301.25 301.25 0 0 0-68.36-30.81s-103.94-42.26-160.13 37.07c-45.76 64.61 25.53 227 120.48 302.41 36.43 5.17 77 .8 114.08-25.93 36.57-26.33 55.28-64.31 62.82-105.71h-.06s14.6-126.62-68.83-177.03Z" class="colorc62310 svgShape"/><path fill="#ffffff" d="M2681.19 1199.27c-44.71 7-98.12 19.33-128.46 26.69-8.71 41.55-18 128.48 46.83 159.24 76.53 36.3 232-70.94 214.82-182.85-45.89-6.97-89.52-9.93-133.19-3.08Z" class="colorfff svgShape"/><path fill="#c62310" d="m3013.57 1719.68 74.15 47.11-55.87-251.8-18.28 204.69z" class="colorc62310 svgShape"/><path fill="#742619" d="M2529.78 749s10.58 31.75 62.17 43c0 0-35 17.86-64.82 7.27 0 0 30.85 35.37 130.06-1.66l-22.52-13.31s46.08-15 57.32-26.87c.01 0-98.72 25.31-162.21-8.43Z" class="color742619 svgShape"/><path fill="#fbc5a9" d="M2745.16 1007.33c-14.54 0-27.48 7.51-35.8 19.21a52.53 52.53 0 0 0-9.08 22.36c-.05.27-.1.56-.13.83l-.18-.13a91.93 91.93 0 0 1-32.67-89.09c.46-2.31 1-4.62 1.67-6.89.06-.19.11-.36.16-.55.61-2.08 1.31-4.17 2.08-6.24.28-.73.6-1.45.91-2.18s.63-1.56 1-2.33c.32-.79.66-1.56 1-2.33 1.13-2.34 2.36-4.68 3.72-7 .5-.84 1-1.61 1.49-2.31l35.41-51.41c-128.46 7.6-200.43-51.27-200.43-51.27s-4 6.78-10.25 18.49c-16.62 31-51.49 96.26-69.11 161.43-13.92 51.42-16.26 102.74 3.87 136.94 25.57 43.41 69.7 46.67 109.76 37.63l1.05 4.67 26.12 115.7.21.94a52.14 52.14 0 0 0 55.74 40.39c32.83-3.09 76-15.34 104.23-54.79 50.91-71.09 34.69-102.79 34.69-102.79l-29.62-78.82c1.37.13 2.77.24 4.17.24 25.21 0 45.65-22.54 45.65-50.35s-20.45-50.35-45.66-50.35Z" class="colorfbc5a9 svgShape"/><path fill="#f7a18a" d="M2556.53 1217.73c50.11-4.41 71.89-76.35 71.89-76.35-29 29-79.84 41.15-79.84 41.15ZM2752.19 1067.65h-47.9l50.49-30a3.51 3.51 0 0 1 3.59 6l-28.51 16.93h22.33a3.51 3.51 0 0 1 0 7ZM2512.31 1014.15a3.57 3.57 0 0 1-.65-.06c-24.22-4.48-37.39-11.83-40.28-22.46-4.09-15.1 13.83-32.14 30.95-46.92 19.23-16.61 16.48-39.76 16.36-40.74a3.56 3.56 0 0 1 7-.93c.15 1.13 3.45 27.87-18.76 47.05-15.82 13.66-31.61 29.06-28.73 39.67 2 7.52 14 13.52 34.7 17.34a3.55 3.55 0 0 1-.64 7Z" class="colorf7a18a svgShape"/><path fill="#5b1e13" d="M2499.48 913.69c-4-1.8-9.09.91-11.43 6.06s-1 10.79 3 12.59 9.09-.91 11.43-6.06.97-10.79-3-12.59ZM2561.16 935.44c-4-1.8-9.09.91-11.43 6.06s-1 10.79 3 12.59 9.09-.91 11.43-6.06.97-10.79-3-12.59ZM2595 932.27a7.1 7.1 0 0 1-6.65-4.6c-3.63-9.63-10.09-15.47-19.18-17.35a34.93 34.93 0 0 0-13.92.08 7.11 7.11 0 0 1-3.55-13.77c12.64-3.29 39.35-2.09 50 26a7.12 7.12 0 0 1-6.66 9.62ZM2507.6 891.07c-.36-.91-3.94-8.82-18.28-9.07a7.11 7.11 0 0 1 .12-14.22h.12c24.86.42 31.17 17.74 31.42 18.47l-13.43 4.67Z" class="color5b1e13 svgShape"/><path fill="#f3888a" d="M2602.49 986.29c-18.86-3.12-35.32 1.45-36.77 10.22s12.65 18.41 31.51 21.54 35.32-1.45 36.78-10.22-12.66-18.41-31.52-21.54Z" opacity=".5" class="colorf3888a svgShape"/><path fill="#ffffff" d="M2493.19 1099.59c25.83 6.73 32.66-25.78 32.66-25.78l-56.22-9.73s-2.28 28.78 23.56 35.51Z" class="colorfff svgShape"/><path fill="#c62310" d="m2321.31 1760.6 10.47-264.76-89.33 265.34 78.86-.58z" class="colorc62310 svgShape"/><path fill="#fbc5a9" d="m2182.43 1420.36-166.43 4.18s37.27 468.53 133.65 524.75c111.5 65 168.4 23.21 196.67-24.36 21.27-35.8 23.83-79.71 7.75-118.12ZM3200.64 1835.4c-71.77-40.43-173.41-116.19-173.41-116.19s-32.78-11.42-83.31 5a233.84 233.84 0 0 0-63.62 32l66.83 83.56s155.46 260.4 242.39 309.93 208.21 64.68 208.21-87.94-125.33-185.94-197.09-226.36Z" class="colorfbc5a9 svgShape"/><path fill="#f7a18a" d="M3303.36 1890.13c30 44.56 70.21 143.84-14.17 293.42 58.68 4.92 108.54-23.91 108.54-121.75 0-90.18-43.73-138.71-94.37-171.67Z" class="colorf7a18a svgShape"/><path fill="#3f477c" d="m2930.89 1417.15-9-7a19.35 19.35 0 0 0-26 1.95l-293.38 309.74-28.48 79.77 86.61-34.71 272.75-325.27a17.1 17.1 0 0 0-2.5-24.48Z" class="color3f477c svgShape"/><path fill="#5c6bbb" d="M2897 1428.1s-261.57 268-260.35 281.52 19.94 16.5 29.76 5.45 298.06-325.01 230.59-286.97Z" class="color5c6bbb svgShape"/><path fill="#fbc5a9" d="M2888.78 1544c-34.66-11.58-104.86-24.64-134.11-3s-76.52 73.75-88.67 77.7-6.72 34.4 18.28 40.13 52-24.92 52-24.92-35.24 49.37-11.17 72.51c0 0-10 13.51-2.08 33.92s26.54 43 65.95 67.57 53.86-9.29 53.86-9.29 20.28 34.9 49.36 35.93 35.62-8.62 38-7 16.88 12.25 16.88 12.25l80.1-120.6-33.69-32.57s-70.05-131.03-104.71-142.63Z" class="colorfbc5a9 svgShape"/><path fill="#ae693d" d="M2764.11 1664.69c-11.44 9-21.7 19.64-29.21 32.09 5.18-5.06 10.49-9.86 15.79-14.64s10.77-9.31 16.39-13.62 11.42-8.37 17.36-12.25 12.25-7.17 18.72-10.48a81.9 81.9 0 0 0-20.57 7.19 112.83 112.83 0 0 0-18.48 11.71ZM2773.73 1597.67c-11.44 9-21.71 19.64-29.22 32.09 5.19-5.06 10.5-9.86 15.79-14.64s10.77-9.3 16.39-13.62 11.43-8.37 17.37-12.24 12.24-7.18 18.72-10.49a82 82 0 0 0-20.58 7.19 113.17 113.17 0 0 0-18.47 11.71ZM2793.23 1741.83a71 71 0 0 1-16.21 2.77c-2.77.18-5.58.07-8.43.19-2.82-.14-5.67-.33-8.6-.29 2.7 1 5.49 1.84 8.31 2.65a86.74 86.74 0 0 0 8.7 1.24 51.09 51.09 0 0 0 17.68-1.93 41.39 41.39 0 0 0 15.49-9 32 32 0 0 0 9.37-14.79 50.45 50.45 0 0 1-26.31 19.16Z" class="colorae693d svgShape"/><path fill="#ae693d" d="M2802.44 1740.55c3.41 7.27 8 13.6 12.82 19.7s10.21 11.8 16.6 16.66c-3.42-7.26-8-13.59-12.83-19.7s-10.19-11.81-16.59-16.66Z" class="colorae693d svgShape"/><path fill="#5c6bbb" d="m2602.59 1721.84-28.48 79.77 86.61-34.71c-17.43-40.75-58.13-45.06-58.13-45.06Z" class="color5c6bbb svgShape"/><path fill="#7986c7" d="M2626.9 1743.91s-37.8 37.8-36.24 38.57 52.22-17.14 51.44-21-8.57-17.96-15.2-17.57Z" class="color7986c7 svgShape"/><ellipse cx="2014.25" cy="1030.31" fill="#f2f2f2" rx="134.81" ry="20.43" class="colorf2f2f2 svgShape"/><path fill="#f2f2f2" d="M2043 1293.9q-7.63-.42-15.64-.61c-4.3-.13-8.67-.17-13.09-.17-36.6 0-69.39 3.69-91.49 9.51-18.09 4.76-29 10.95-29 17.73 0 5.72 7.82 11 21.17 15.41 21.72 7.14 58.11 11.82 99.34 11.82 66.56 0 120.52-12.2 120.52-27.23-.05-12.8-39.15-23.56-91.81-26.46Z" class="colorf2f2f2 svgShape"/><path fill="#f2f2f2" d="m1892.53 1295.82 1.2 24.54h241.03l14.29-290.04h-269.61l13.09 265.5z" class="colorf2f2f2 svgShape"/><path fill="#6c3506" d="M1991.48 1121.69c-32.25 22.49-48.14 53.75-46.13 93.17.7 13.7 7.54 24.87 20.76 30.59 2.63 1.14 7.1 1.11 9.3-.43 11.47-8 20.17-18.45 22.39-32.63a104.1 104.1 0 0 0 .61-24.13c-1.76-22.49 4.82-41.47 21.68-56.8 3.71-3.37 6.64-7.59 10.09-11.6-12.45-6.68-26.61-6.6-38.7 1.83Z" class="color6c3506 svgShape"/><path fill="#6c3506" d="M2047.31 1126.54c-2-1.53-7.19-2.08-8.68-.7-19.92 18.63-34.64 39.53-28.66 69.12 3.59 17.81-1.68 33.07-15 45.44-3.54 3.28-7.28 6.33-12.61 10.94 15.71 3.22 27.34.3 37.74-6.61 28.49-19 43-46 43.82-80 .31-14.84-3.92-28.73-16.61-38.19Z" class="color6c3506 svgShape"/><path fill="#c7c7c7" d="M2095.44 1030.58s6.3 186-14.72 234.33c-5.46 12.57-19.32 22.24-37.75 29-32.74 12-79.93 14.89-120.22 8.73a206.25 206.25 0 0 1-30.22-6.81l1.2 24.54c0 5.72 7.82 11 21.17 15.41 21.72 7.14 58.11 11.82 99.34 11.82 66.56 0 120.52-12.2 120.52-27.23l14.29-290h-53.61Z" class="colorc7c7c7 svgShape"/><ellipse cx="2014.89" cy="1034.73" fill="#e3b385" rx="126.67" ry="16.68" class="colore3b385 svgShape"/><path fill="#6c3506" d="M2039.88 938.71a26.41 26.41 0 0 0-8.46-6.49c-5.91-2.9-11.42-4.32-16.76-7.62 2.94 5.72 8.57 9.64 12.51 13.71 4.19 4.05 6.07 8.06 5.6 12.1-.32 4.06-2.57 8.52-5.69 12.47a44.39 44.39 0 0 1-5.25 5.6c-2 1.89-4.25 3.81-6.56 5.81-4.54 4.07-9.6 8.7-13.4 15.09a33.54 33.54 0 0 0-4.49 21.58 40.27 40.27 0 0 0 7.84 18.85 43.79 43.79 0 0 0 14.4 12.51c-6.64-10.47-11-21.83-10.37-31.95a24.36 24.36 0 0 1 4.66-13.15c2.79-3.88 6.81-7.52 11.31-11.45 8.69-7.42 20.92-19.35 19.37-36a21 21 0 0 0-4.71-11.06ZM1997.63 949.48c2.42 3.48 3.87 7.34 3.12 10.87s-2.94 6.64-5.42 9.56c-5.16 5.9-11.58 10.59-17.69 17.16a31.37 31.37 0 0 0-6.48 12.39 28.45 28.45 0 0 0 .13 13.88 34.74 34.74 0 0 0 15.29 20.53c-5-6.75-8.59-14.15-9.5-21.66a25.4 25.4 0 0 1 6.25-20.12c5-5.67 11.86-11.18 16.68-18.59 2.4-3.67 4.53-8.06 4.42-12.93a14.11 14.11 0 0 0-6.8-11.09Z" class="color6c3506 svgShape"/><path fill="#6c3506" d="M2050.57 982.31c-5.18 4.46-11.47 8.34-16.18 15.23a25.7 25.7 0 0 0-4.11 11.66 27.53 27.53 0 0 0 1.61 12 33.18 33.18 0 0 0 14.24 17.13c-4.14-6-7.29-12.33-8.57-18.77a23.38 23.38 0 0 1 3.13-17.77c3.38-5.09 9.09-9.57 14-15.21a30.17 30.17 0 0 0 6.07-9.82 16.75 16.75 0 0 0 0-11.33c-.5 7.57-4.94 12.57-10.19 16.88Z" class="color6c3506 svgShape"/><path fill="#c7c7c7" d="M1902.92 1202.42H1873l-15.33-83.66a2 2 0 0 1 .51-1.76 2 2 0 0 1 1.72-.65l34.64 3.58a14.71 14.71 0 1 0 3-29.27l-34.65-3.59a31.49 31.49 0 0 0-34.2 37l15.44 84.21a28.74 28.74 0 0 0 28.28 23.57h30.48a14.72 14.72 0 1 0 0-29.43Z" class="colorc7c7c7 svgShape"/><path fill="#fbc5a9" d="M1899.22 1264.35c-27.56-17.06-45.53-78-65.86-67.12s-5.47 42.57 10.67 77.3 58.93 75.66 58.93 75.66 23.82-68.77-3.74-85.84Z" class="colorfbc5a9 svgShape"/><path fill="#fbc5a9" d="M2117.31 1336.67c-65.88-7-74.49-9.56-74.49-9.56s-11-81.5-29.69-92.85-30-6.35-26 19.74 4.81 72.44 4.81 72.44-45.45-20-50.75-35.48-5.44-62.9-16.35-83.23-43.3-16-39.13 43.86 10.74 108.6 35.63 117.58 98.27 59.25 110.88 92.62c59.77 25.36 157-25.33 157-25.33s-7.01-91.66-71.91-99.79Z" class="colorfbc5a9 svgShape"/><path fill="#6d4625" d="M2661.68 722.07s16.21 82.49 127.51 172.12c81.56 65.69 98 50.07 98 50.07l24.75-33-223.25-218.94Z" class="color6d4625 svgShape"/><path fill="#56381d" d="M2665.49 717.75c8.62 9.27 13.35 18.89 20.11 29.86 9.78 15.88 24.07 28.7 37.6 42 26.66 26.15 51 52.58 75 80.69 20.7 24.26 43.57 37.29 72.49 47.38 7.48 2.61 18.35 10 27.43 11.48l12.22-16.31-223.19-218.97Z" class="color56381d svgShape"/><path fill="#875a2d" d="M2853.58 687c-34.33-30.92-92.4-67.12-143-67.7-22.25-.26-62.15 8.41-64.2 38.49 0 0-11.91 28 41.47 69.1 12.58 9.69 34 30 55.1 57.11 14.35 18.43 45.63 53.52 63.56 68.49 14.6 12.19 39 22 53.62 34.19 17.16 14.3 19.42 12.74 38.52 24.26 25.25 15.22 49.69-5.57 57.91-27.92 9.71-26.42 5.47-59.74-8.18-85.44-22.85-42.91-58.82-78.17-94.8-110.58Z" class="color875a2d svgShape"/><path fill="#875a2d" d="M2929.81 767.93c-4.59-1.5-9.19-2.82-13.84-4.07q-14.66-3.95-29.5-6.79c.48 3 .93 6.07 1.36 9.1q2.46 17.45 3.6 34.88c13.25 2.36 26.45 5.18 39.5 8.76q7.14 2 14.22 4.18c-1.58-10.64-3.58-21.25-5.76-31.83-3.04-4.84-6.25-9.58-9.58-14.23ZM2872.39 710.87a391.46 391.46 0 0 0-53.39-10.79c2.21 9.11 4 18.3 5.33 27.5 1 6.45 1.7 12.95 2.24 19.45a548.41 548.41 0 0 1 56.83 6.97c-2.31-14.17-5.14-28.3-8.32-42.36ZM2891.34 857.88h-.29a328.18 328.18 0 0 1-6.82 45c1.37.72 2.82 1.49 4.42 2.36 11.69-1.87 23.95-1.47 35.82-.38 5.21.48 10.42 1.14 15.62 1.85a52.33 52.33 0 0 0 4.58-4.37c.62-3.36 1.18-6.73 1.65-10.14a252.72 252.72 0 0 0 2.21-26.69q-6.89-1.71-13.83-3c-14.42-2.71-28.84-3.87-43.36-4.63ZM2861.8 753.05c-11.66-1.55-23.33-2.6-35-3.48a293.9 293.9 0 0 1 .07 44c5.18.11 10.36.35 15.56.75 14.56 1.14 29.16 3.35 43.64 5.79l2.88.5c-1-14.71-2.79-29.4-5.12-44q-10.99-2.09-22.03-3.56ZM2877.19 709.63l1.12.31-1.35-1.29c.04.35.16.65.23.98ZM2816 699.7c-15.21-1.78-30.45-2.84-45.68-3.71-8.28-.47-16.54-1-24.8-1.2q2 14.31 3 28.64.76 11.48.94 22.94c19.55-2.43 39.95-1.72 59.25-.55q7.74.46 15.49 1a296.79 296.79 0 0 0-7.62-47.08ZM2882.07 713.59c-1.42-.42-2.84-.82-4.26-1.22 3.14 14 6 28 8.24 42.09 2.4.46 4.8.92 7.19 1.43a340.93 340.93 0 0 1 34.09 8.64c-13.45-18.2-28.98-35.02-45.26-50.94ZM2724.77 620.36a210.5 210.5 0 0 1 7.82 19.48 299.63 299.63 0 0 1 52.49 5.23c4.38.86 8.75 1.85 13.12 2.92l-.51-1.06c-23.14-13.07-48.54-23.35-72.92-26.57ZM2819.49 749c-13.16-.93-26.34-1.69-39.48-1.66a253.16 253.16 0 0 0-30.61 1.7q.21 20.67-1.5 41.19c2.41 3 5.09 6.16 7.95 9.51 22.48-4 45.35-6.52 68.43-6.25q.31-4.15.51-8.33a304.16 304.16 0 0 0-.5-35.82ZM2868.67 799.94a356.29 356.29 0 0 0-42-3.86 244.41 244.41 0 0 1-13.08 61.73c1.33.9 2.7 1.8 4.11 2.68a104.49 104.49 0 0 1 13-3.19c13.33-2.39 27.05-2.91 40.73-2.67 5.8.1 11.64.27 17.48.52q.54-7 .79-14.09c.44-12.63.19-25.27-.62-37.9q-10.17-1.78-20.41-3.22ZM2716.6 642.55a244.58 244.58 0 0 0-38.51 2.61c2.3 6.58 4.1 13.32 6.06 19.92 3.06 10.29 6.34 20.51 9.09 30.85q8-1.53 16.2-2.41a263.44 263.44 0 0 1 33.12-1.23 290.63 290.63 0 0 0-11.56-49.67c-4.82-.06-9.61-.07-14.4-.07ZM2945.54 816.72c-10.3-3.31-20.73-6.13-31.22-8.52q-11.33-2.58-22.74-4.61a388.84 388.84 0 0 1-.32 51.67c7.22.35 14.44.85 21.63 1.59a261.32 261.32 0 0 1 35.71 6.15c.11-5.39.06-10.78-.18-16.19-.42-10.09-1.42-20.11-2.88-30.09ZM2760.44 644c-9-.85-18-1.22-26.91-1.37a296.65 296.65 0 0 1 11.59 49.68c9.25.22 18.51.75 27.8 1.3 14.24.84 28.6 1.83 42.9 3.48a274.89 274.89 0 0 0-16.18-46 272.57 272.57 0 0 0-39.2-7.09ZM2728.92 694.75a223.67 223.67 0 0 0-35 3.69c1 3.89 1.92 7.79 2.72 11.73 1.82 9 3 18 3.92 27 0 .12 0 .32.07.58 5 4.62 10.63 10.08 16.52 16.28a135 135 0 0 1 29.75-7.38 403.2 403.2 0 0 0-4-52c-4.65-.02-9.32-.04-13.98.1ZM2742.91 784a243 243 0 0 0 2.7 3.42c.25-3.28.47-6.56.64-9.85q.75-14 .65-28.18a133.46 133.46 0 0 0-27.83 6.71c7.65 8.19 15.76 17.56 23.84 27.9ZM2675.67 645.58l-.84.14c-9.72 1.78-19.37 4.43-28.09 8.8a31.61 31.61 0 0 0-.39 3.28s-7.7 18.11 17 46.57a173 173 0 0 1 27.44-8c-3.41-12.89-7.57-25.61-11.3-38.43-1.16-4.03-2.38-8.22-3.82-12.36ZM2691.71 699.8c-.08-.29-.16-.59-.23-.88a170.78 170.78 0 0 0-26.28 7.5 173.2 173.2 0 0 0 22.61 20.49c2.9 2.23 6.28 5 10 8.36-.18-1.56-.36-3.11-.55-4.67a250.6 250.6 0 0 0-5.55-30.8Z" class="color875a2d svgShape"/><path fill="#875a2d" d="M2757.77 802c15.52 18 35.64 39.59 48.7 50.49 1.54 1.29 3.2 2.55 4.94 3.79a242.39 242.39 0 0 0 12.67-60.28c-22.41-.19-44.52 2.19-66.31 6ZM2820.54 862.25c13.37 8.1 29 15.65 39.55 24.45 10.4 8.66 15.32 11.5 21.84 15a324.42 324.42 0 0 0 6.79-43.91c-22.65-1.2-46.66-1.94-68.18 4.46ZM2892.36 907.3c1.88 1.06 3.94 2.26 6.25 3.66 14.07 8.48 27.88 5.78 38.78-2.13-4-.53-8-1-12.07-1.39-10.93-1-22.14-1.44-32.96-.14ZM2943.24 788.5c1.3 6.53 2.51 13.06 3.57 19.62q.54 3.36 1 6.74 4.44 1.44 8.85 3a114.66 114.66 0 0 0-8.34-20.29c-1.61-3.05-3.32-6.07-5.08-9.07ZM2948.2 817.59a303.93 303.93 0 0 1 2.82 46q2.51.64 5 1.34 2.35.66 4.7 1.37a111.25 111.25 0 0 0-3.19-45.45q-4.64-1.71-9.33-3.26ZM2647.47 651.23a105.22 105.22 0 0 1 27.28-8.2 72.28 72.28 0 0 0-7-14.33c-9.59 4.99-17.39 12.3-20.28 22.53ZM2948.13 897.28c-.06.41-.13.81-.2 1.21a58.52 58.52 0 0 0 8.59-15.45 83.91 83.91 0 0 0 3.81-14.31q-4.66-1.4-9.38-2.62a242.78 242.78 0 0 1-2.82 31.17ZM2710.54 619.32c-11.4-.13-27.42 2.08-40.62 8.31a80.16 80.16 0 0 1 7.26 15 219.42 219.42 0 0 1 22.47-2.18c10-.52 20.17-.78 30.35-.66a207.66 207.66 0 0 0-8.08-19.78q-5.74-.62-11.38-.69ZM2853.58 687a321.17 321.17 0 0 0-45.08-33.67c-1.34-.36-2.69-.71-4-1.05l-1.81-.45a279 279 0 0 1 15.71 45.58 315.85 315.85 0 0 1 43.09 8c4.34 1.15 8.68 2.29 13 3.48l-.78-3.35c-6.71-6.31-13.4-12.47-20.13-18.54Z" class="color875a2d svgShape"/><path fill="#875a2d" d="M2844.32 684.44c-4.62 7.64 22.93 30.74 28 35.48 8.59 8.05 24.1 13.37 19.66-2.23-2.98-10.33-38.54-48.61-47.66-33.25Z" class="color875a2d svgShape"/><path fill="#875a2d" d="M2849.79 697.1a5 5 0 0 0-1-.13Z" class="color875a2d svgShape"/><path fill="#56381d" d="M2890.88 715.82c-2.07 6.2-13.26 1.54-20.1-4.86-3.7-3.47-19.43-16.76-25.8-26.64a8.41 8.41 0 0 0-.62.9c-4.63 7.64 22.93 30.74 28 35.48 8.59 8 24.1 13.36 19.66-2.23a14.29 14.29 0 0 0-1.14-2.65Z" class="color56381d svgShape"/><path fill="#6d4625" d="M2945.24 850.85c-8.21 22.35-32.65 43.14-57.9 27.91-19.11-11.52-21.36-10-38.52-24.26-14.62-12.19-39-22-53.62-34.19-17.94-15-49.21-50.06-63.57-68.48-21.11-27.1-42.52-47.43-55.1-57.12-15.27-11.71-25.19-22.45-31.53-31.71-.79 9.9 2.71 33.26 42.5 63.9 12.58 9.69 34 30 55.1 57.12 14.35 18.42 45.63 53.51 63.56 68.48 14.61 12.19 39 22 53.63 34.19 17.16 14.3 19.41 12.74 38.52 24.26 25.25 15.23 49.68-5.56 57.9-27.91 9.57-26 5.6-58.71-7.56-84.25 3.23 17.74 2.44 36.15-3.41 52.06Z" class="color6d4625 svgShape"/><path fill="#ffffff" d="M2816 669.46c-7.43-4.41-23.9-10.25-39.88-13.19-7-3-14.13-5.9-21.4-8.39-15.66-5.37-49.42-8.81-48.21 16.54 1.23 25.62 32.92 32.37 51.79 31.64 24.63-.94 42.34 10.7 65.83 15.8 13.23 2.87 23.72-3.89 17.33-17.68-4.4-9.47-16.36-19.3-25.46-24.72zM2744.82 873.82l-.74-.72z" opacity=".1" class="colorfff svgShape"/><path fill="#014f35" d="M3926.68 1652.71c-21.84 28.93-40.23 66.51-55.71 109.75-47 131.33-67.12 314.82-75.45 466.3-5.07 91.9-5.8 172-5.56 221.55q12.54-12.51 23.84-25.51 13.41-15.39 25.15-31.41c-19.55-265.28 14.84-464.48 49.28-589.16 18-65.12 36-109.91 46.3-133.18 5.51-12.4 8.84-18.68 8.84-18.68l-6.39.13Z" class="color014f35 svgShape"/><path fill="#005e42" d="m3649.57 1814.18-16.68.34s165.22 232.22 127.3 663.34q15.69-13.47 29.77-27.55 12.54-12.51 23.84-25.51c-2.7-50.28-8-120.31-18.28-196-20.98-154.12-62.77-331.8-145.95-414.62Z" class="color005e42 svgShape"/><path fill="#3ecaa1" d="M3697.91 1823.15s-.83-100.11-74.6-112.82-199.25 118.05-264.81 306.67c-12.25 35.3-7.12 60.2 9.93 76.66 73.62 71.68 370.09-15 428.89-93.84 72.34-96.97-31.07-179.03-99.41-176.67Z" class="color3ecaa1 svgShape"/><path fill="#1fa47c" d="M3623.31 1710.33c-73.76-12.71-199.25 118.05-264.81 306.66-12.25 35.3-7.12 60.2 9.93 76.66 155.93-200.39 329.48-270.5 329.48-270.5s-.83-100.15-74.6-112.82Z" class="color1fa47c svgShape"/><g style="mix-blend-mode:multiply"><path fill="#d1d2d3" d="M3628.63 1856.39c-7.41 4.29-14.64 8.86-22 13.28-29 18.23-56.51 38.63-83.21 60l-19.79 16.33-19.29 16.9-9.6 8.49-9.37 8.76-18.62 17.62c-12.29 11.87-24.07 24.26-36 36.43-11.49 12.64-23 25.21-34.33 38 12.35-11.8 24.34-23.92 36.58-35.79l18.61-17.52c6.26-5.78 12.22-11.87 18.64-17.47l19-17.1 9.48-8.55 9.71-8.29 19.33-16.67 19.81-16.09c26.47-21.36 53.66-41.85 81.9-60.82l21.4-13.88c7.27-4.4 14.41-9.06 21.83-13.21a413.85 413.85 0 0 1 45.28-23.62c-16.18 5.53-31.6 13-46.8 20.87-7.73 3.8-15.06 8.21-22.56 12.33Z" class="colord1d2d3 svgShape"/><path fill="#d1d2d3" d="M3423.79 2019.36c.08.17.18.33.27.5s.43.25.64.39Z" class="colord1d2d3 svgShape"/><path fill="#d1d2d3" d="m3428.84 2016-.38-.6-.53-.3a48.76 48.76 0 0 0-11.44-4.53 42.8 42.8 0 0 0-12.09-1.3 31.06 31.06 0 0 0-11.75 2.75c-3.75 1.49-6.83 4.16-9.57 6.83a37.86 37.86 0 0 1 10.38-4.52 32.37 32.37 0 0 1 10.89-.9 42.52 42.52 0 0 1 10.63 2.26 47.14 47.14 0 0 1 9.08 4.14c-.09-.17-.19-.33-.27-.5l.91.89c-.21-.14-.43-.26-.64-.39 1.4 2.65 3.08 5.15 4.3 7.87a77.12 77.12 0 0 1 3.48 8.81 62.94 62.94 0 0 1 3.24 18.57 80.05 80.05 0 0 1-.35 9.53l-.71 4.76-1 4.74a82.69 82.69 0 0 1-6.92 18.37 55.64 55.64 0 0 0 10.46-17.24 58.82 58.82 0 0 0 4.17-20.12 58.05 58.05 0 0 0-2.82-20.55c-1.91-6.68-5.4-12.75-9.07-18.57ZM3471.37 1978.37l.32.39.5.25Z" class="colord1d2d3 svgShape"/><path fill="#d1d2d3" d="m3475.9 1974.3-.38-.43-.43-.21a100.64 100.64 0 0 0-18.92-6.94 88.61 88.61 0 0 0-19.86-2.77 59.63 59.63 0 0 0-19.76 3.19 47.35 47.35 0 0 0-16.62 10.56c5.41-3.69 11.1-6.77 17.33-8.24a65.05 65.05 0 0 1 18.86-1.31 88.74 88.74 0 0 1 18.59 3.76 98.66 98.66 0 0 1 17 6.85l-.32-.39.82.64-.5-.25a85.73 85.73 0 0 1 15.71 26.68 83.39 83.39 0 0 1 4.09 15.3 101 101 0 0 1 1.64 15.86 144.85 144.85 0 0 1-2.89 32.08 177 177 0 0 1-9.14 31.34 111.77 111.77 0 0 0 7.27-14.82 135.51 135.51 0 0 0 5.46-15.66 125 125 0 0 0 4.94-33 94.66 94.66 0 0 0-5.38-33.27 85.73 85.73 0 0 0-17.51-28.97ZM3528.35 1929.45l.08.08.12.08Z" class="colord1d2d3 svgShape"/><path fill="#d1d2d3" d="M3559.45 1957.48c-1.65-3.16-3.7-6.08-5.6-9.09-2.16-2.83-4.13-5.81-6.52-8.46a129.13 129.13 0 0 0-15-15.15l-.11-.09-.1-.07a148.37 148.37 0 0 0-22.93-12.48 120.44 120.44 0 0 0-24.84-7.8 71.8 71.8 0 0 0-26-.46 57.44 57.44 0 0 0-12.42 3.82 51.06 51.06 0 0 0-10.88 6.85 59.82 59.82 0 0 1 11.39-5.59 55.69 55.69 0 0 1 12.25-2.64 75.52 75.52 0 0 1 24.78 2.2 120 120 0 0 1 23.49 8.58 143.75 143.75 0 0 1 21.47 12.43l-.08-.08.2.16-.12-.08a121.67 121.67 0 0 1 25.49 31.09 115.15 115.15 0 0 1 8.59 18.34 128.59 128.59 0 0 1 5.8 19.5 180.29 180.29 0 0 1 4.08 40.74 207.1 207.1 0 0 1-4.29 41.14 140.17 140.17 0 0 0 5.21-20.22 174.35 174.35 0 0 0 2.74-20.77 161.12 161.12 0 0 0-2.24-42 127.33 127.33 0 0 0-14.36-39.87ZM3590.9 1886.84c-.16-.43-.35-.85-.51-1.27l-1.07-.56Z" class="colord1d2d3 svgShape"/><path fill="#d1d2d3" d="M3628.31 1913.23a124.89 124.89 0 0 0-18.25-15.91 153 153 0 0 0-19.67-11.75c.16.42.35.84.51 1.27l-1.58-1.83 1.07.56a95.79 95.79 0 0 0-16.67-27.26 85.17 85.17 0 0 0-26-20.47 75 75 0 0 0-15.47-5.87 77.79 77.79 0 0 0-16.22-2.65 106.57 106.57 0 0 0-32.28 3.07 118.41 118.41 0 0 1 32-.38 83.54 83.54 0 0 1 29.82 9.86 84.68 84.68 0 0 1 23.8 20.1 95.93 95.93 0 0 1 15.63 26.83l.47 1.26 1.11.56a136.94 136.94 0 0 1 37.22 26.93 111.44 111.44 0 0 1 24.18 38.79 138.19 138.19 0 0 1 8.21 45.54 173.31 173.31 0 0 1-5.33 46.59 134.25 134.25 0 0 0 6.16-22.89 157.74 157.74 0 0 0 2.65-23.68 133.93 133.93 0 0 0-6.54-47.38 112.11 112.11 0 0 0-24.82-41.29ZM3646 1849.65c0-.84-.11-1.68-.17-2.52-.81-.15-1.61-.29-2.42-.42Z" class="colord1d2d3 svgShape"/><path fill="#d1d2d3" d="M3728 1906a113.33 113.33 0 0 0-14.78-22.35 102.46 102.46 0 0 0-20.05-17.94c-14.16-9.81-30.67-15.58-47.36-18.57.06.84.13 1.68.17 2.52l-2.59-2.94c.81.13 1.61.27 2.42.42a90.8 90.8 0 0 0-7.24-29.89 84.41 84.41 0 0 0-19.16-27 103.49 103.49 0 0 0-27.14-18.38 118.31 118.31 0 0 0-30.89-10 131.47 131.47 0 0 1 29.71 12.26c9.25 5.31 18 11.55 25.21 19.23a81.53 81.53 0 0 1 17.17 26.05 88.28 88.28 0 0 1 6.32 30.48l.1 2.52 2.49.42c16.84 2.84 33.19 8.64 47.24 18.11a103.86 103.86 0 0 1 33.46 37.61c8.11 15 13 31.77 15.82 48.81a220.63 220.63 0 0 1 2.24 52 169.27 169.27 0 0 0 2.41-26.13 191.49 191.49 0 0 0-1.09-26.32c-1.97-17.52-6.46-34.91-14.46-50.91Z" class="colord1d2d3 svgShape"/></g><path fill="#005e42" d="M3930.54 1973.85c-67.28 116.35-86.27 301.68-91.25 419.06a468.4 468.4 0 0 0 42.92-71c.88-125.55 26.36-224.26 53-293.44 29.68-77.13 60.77-117.55 60.77-117.55l-16.68.34c-18.57 17.05-34.71 38.32-48.76 62.59Z" class="color005e42 svgShape"/><path fill="#3ecaa1" d="M4005.12 1508.78c-74.38 8.35-81.19 108.22-81.19 108.22-68-6.42-176.17 69.37-109.7 170.48 54.73 83.19 352.37 189 425.49 116.43 15.76-15.55 21.1-39.32 11.54-73.24-54.26-192.16-171.77-330.2-246.14-321.89Z" class="color3ecaa1 svgShape"/><path fill="#1fa47c" d="M3923.93 1617c-68-6.42-176.17 69.37-109.7 170.48 54.73 83.19 352.37 189 425.49 116.43C4077.38 1684 3923.93 1617 3923.93 1617Z" class="color1fa47c svgShape"/><g style="mix-blend-mode:multiply"><path fill="#d1d2d3" d="m4164.31 1806.17-17.54-18.69-8.83-9.3-9.08-9-18.26-18-18.82-17.43c-25.37-22.92-51.65-44.93-79.5-64.84-7.05-4.85-14-9.84-21.13-14.56-7.24-4.56-14.3-9.4-21.71-13.68-14.71-8.71-29.66-17.13-45.48-23.6a414.2 414.2 0 0 1 43.8 26.26c7.16 4.58 14 9.66 21 14.48l20.55 15.13c27.06 20.61 53 42.68 78.14 65.57l18.81 17.24 18.31 17.79 9.2 8.84 9 9.1 17.92 18.2c6.07 6 11.66 12.41 17.56 18.55l17.54 18.6c11.51 12.57 22.76 25.38 34.39 37.89-10.5-13.45-21.29-26.68-32-40-11.28-12.9-22.3-25.97-33.87-38.55Z" class="colord1d2d3 svgShape"/><path fill="#d1d2d3" d="m4185 1830 .66-.35c.1-.16.21-.32.3-.49Z" class="colord1d2d3 svgShape"/><path fill="#d1d2d3" d="M4217.47 1823.68a31.12 31.12 0 0 0-11.57-3.45 43.73 43.73 0 0 0-12.14.58 48.54 48.54 0 0 0-11.69 3.85l-.54.26-.42.58c-4 5.57-7.84 11.42-10.17 18a58.15 58.15 0 0 0-4 20.34 59.11 59.11 0 0 0 3 20.33 55.67 55.67 0 0 0 9.41 17.83 82.6 82.6 0 0 1-5.81-18.75l-.71-4.79-.42-4.79a77.58 77.58 0 0 1 .21-9.53 62.77 62.77 0 0 1 4.34-18.35 75.86 75.86 0 0 1 4-8.59c1.38-2.64 3.21-5 4.76-7.6l-.66.35 1-.84c-.09.17-.2.33-.3.49a48.19 48.19 0 0 1 9.31-3.6 43 43 0 0 1 10.75-1.62 32.25 32.25 0 0 1 10.81 1.55 37.85 37.85 0 0 1 10.09 5.13c-2.72-2.82-5.6-5.67-9.25-7.38ZM4140 1786l.51-.23.35-.37Z" class="colord1d2d3 svgShape"/><path fill="#d1d2d3" d="M4196.28 1777.43a59.47 59.47 0 0 0-19.54-4.36 88.15 88.15 0 0 0-20 1.59 100.69 100.69 0 0 0-19.29 5.8l-.44.19-.42.41a85.81 85.81 0 0 0-19.17 27.88 94.46 94.46 0 0 0-7.35 32.89 124.94 124.94 0 0 0 3 33.23 136.45 136.45 0 0 0 4.53 16 110.45 110.45 0 0 0 6.38 15.22 176.85 176.85 0 0 1-7.27-31.83 145.31 145.31 0 0 1-1-32.19 101.31 101.31 0 0 1 2.58-15.74 83.07 83.07 0 0 1 5-15 86.09 86.09 0 0 1 17.26-25.7l-.51.23.86-.6-.35.37a99.48 99.48 0 0 1 17.36-5.83 88.93 88.93 0 0 1 18.78-2.64 64.73 64.73 0 0 1 18.75 2.42c6.14 1.84 11.63 5.25 16.81 9.25a47.42 47.42 0 0 0-15.97-11.59ZM4086.7 1733.32l.12-.07.09-.08Z" class="colord1d2d3 svgShape"/><path fill="#d1d2d3" d="M4158.31 1711.8a71.73 71.73 0 0 0-26-1.08 119.62 119.62 0 0 0-25.26 6.3 149 149 0 0 0-23.64 11.11h-.1l-.11.09a129 129 0 0 0-15.86 14.24c-2.54 2.5-4.68 5.36-7 8-2.07 2.89-4.29 5.69-6.13 8.74a127.53 127.53 0 0 0-16.7 38.93 161.52 161.52 0 0 0-4.73 41.81 177.86 177.86 0 0 0 1.5 20.91 142 142 0 0 0 4 20.48 208.08 208.08 0 0 1-1.84-41.32 180.7 180.7 0 0 1 6.49-40.42 129.49 129.49 0 0 1 6.95-19.12 115.9 115.9 0 0 1 9.66-17.8 121.83 121.83 0 0 1 27.29-29.52l-.12.07.21-.15-.09.08a143.73 143.73 0 0 1 22.18-11.14 119.86 119.86 0 0 1 24-7.17 75.18 75.18 0 0 1 24.86-.72 56.34 56.34 0 0 1 12.08 3.36 59.64 59.64 0 0 1 11 6.25 51.12 51.12 0 0 0-10.45-7.48 57.49 57.49 0 0 0-12.19-4.45ZM4028.69 1685.19l-1.1.49c-.19.42-.4.82-.59 1.24Z" class="colord1d2d3 svgShape"/><path fill="#d1d2d3" d="M4088.79 1635.63a75.13 75.13 0 0 0-15.79 4.94 85.39 85.39 0 0 0-27.16 18.89 95.84 95.84 0 0 0-18.25 26.22l1.1-.49-1.69 1.73c.19-.42.4-.82.59-1.24a154.38 154.38 0 0 0-20.34 10.56 125.86 125.86 0 0 0-19.16 14.8 112.18 112.18 0 0 0-27.17 39.75 134.07 134.07 0 0 0-9.35 46.91 157.53 157.53 0 0 0 1.25 23.8 132.46 132.46 0 0 0 4.79 23.21 173.34 173.34 0 0 1-2.56-46.82 138 138 0 0 1 10.9-45 111.33 111.33 0 0 1 26.43-37.29 137 137 0 0 1 38.76-24.67l1.14-.5.55-1.23a95.85 95.85 0 0 1 17.12-25.85 84.59 84.59 0 0 1 25-18.66 83.44 83.44 0 0 1 30.35-8.07 118.24 118.24 0 0 1 31.94 2.28 106.57 106.57 0 0 0-32-5 77.71 77.71 0 0 0-16.45 1.73ZM3977 1643.75l-2.43.27c-.11.84-.24 1.67-.33 2.51Z" class="colord1d2d3 svgShape"/><path fill="#d1d2d3" d="M4004.28 1588.79a84.72 84.72 0 0 0-20.73 25.82 90.83 90.83 0 0 0-9 29.41l2.43-.27-2.76 2.78c.09-.84.22-1.67.33-2.51-16.85 2-33.67 6.78-48.39 15.73a102.53 102.53 0 0 0-21.07 16.71 113.59 113.59 0 0 0-16.09 21.44c-9 15.46-14.45 32.6-17.45 49.93a191.11 191.11 0 0 0-2.65 26.21 170.07 170.07 0 0 0 .85 26.23 220.83 220.83 0 0 1 5.33-51.74c3.81-16.84 9.7-33.25 18.69-47.78a103.82 103.82 0 0 1 35.63-35.56c14.59-8.62 31.25-13.43 48.23-15.27l2.51-.27.25-2.51a88.59 88.59 0 0 1 8.11-30.05 81.7 81.7 0 0 1 18.69-25c7.68-7.24 16.77-12.95 26.31-17.7a132.71 132.71 0 0 1 30.38-10.48 118.11 118.11 0 0 0-31.42 8.14 103.37 103.37 0 0 0-28.18 16.74Z" class="colord1d2d3 svgShape"/></g><path fill="#3ecaa1" d="M4098.05 1829.17c-73.4-14.63-110.22 78.45-110.22 78.45-62.86-26.84-188.91 12.54-156.34 129.06 27.09 96.78 282.93 290.59 372.5 238.89 18.22-10.53 29.59-31.21 30.73-65 6.72-199.51-63.31-366.71-136.67-381.4Z" class="color3ecaa1 svgShape"/><path fill="#1fa47c" d="M3987.83 1907.62c-62.86-26.84-188.91 12.54-156.34 129.06 27.09 96.78 282.93 290.59 372.5 238.89-89.37-258.01-216.16-367.95-216.16-367.95Z" class="color1fa47c svgShape"/><g style="mix-blend-mode:multiply"><path fill="#d1d2d3" d="m4159.34 2160.88-11-23.14-5.59-11.54-5.9-11.38-11.92-22.7-12.63-22.33c-17.22-29.55-35.56-58.5-56-85.93-5.25-6.76-10.35-13.63-15.71-20.3-5.52-6.54-10.77-13.29-16.53-19.62-11.37-12.77-23-25.34-36.16-36.31a413.19 413.19 0 0 1 33.75 38.33c5.43 6.54 10.41 13.46 15.61 20.18l15 20.65c19.52 27.87 37.51 56.77 54.52 86.22l12.69 22.14 12 22.51 6.08 11.22 5.77 11.39 11.54 22.78c4 7.54 7.34 15.37 11.1 23l11.06 23.05c7.14 15.48 14 31.1 21.25 46.55-5.93-16-12.18-31.88-18.35-47.82-6.86-15.65-13.38-31.45-20.58-46.95Z" class="colord1d2d3 svgShape"/><path fill="#d1d2d3" d="M4171.81 2189.83c.23 0 .48-.08.72-.12s.3-.25.45-.39Z" class="colord1d2d3 svgShape"/><path fill="#d1d2d3" d="M4194.69 2186.92a43.1 43.1 0 0 0-11.75-3.14 48.32 48.32 0 0 0-12.3.12l-.6.08-.57.42c-5.51 4.09-10.94 8.5-15.16 14.07a58.18 58.18 0 0 0-10 18.15 58.93 58.93 0 0 0-3.34 20.27 55.81 55.81 0 0 0 3.55 19.86 83.15 83.15 0 0 1 .16-19.64l.78-4.77 1-4.7a79.92 79.92 0 0 1 3.1-9 62.54 62.54 0 0 1 9.71-16.15 75.4 75.4 0 0 1 6.41-7c2.12-2.09 4.57-3.81 6.83-5.78-.24 0-.49.07-.72.12l1.17-.51c-.15.14-.3.26-.45.39a47.67 47.67 0 0 1 10-.61 42.85 42.85 0 0 1 10.73 1.72 32.19 32.19 0 0 1 9.83 4.76 37.46 37.46 0 0 1 8.06 8 30.24 30.24 0 0 0-6.46-9.82 31.06 31.06 0 0 0-9.98-6.84ZM4142.34 2134.27l.56-.06.44-.25Z" class="colord1d2d3 svgShape"/><path fill="#d1d2d3" d="M4198.52 2143.21a59.53 59.53 0 0 0-17.28-10.09 88.84 88.84 0 0 0-19.53-4.56 100.94 100.94 0 0 0-20.14-.33h-.48l-.52.26a85.82 85.82 0 0 0-26.74 20.74 94.52 94.52 0 0 0-17 29.11 124.94 124.94 0 0 0-7.27 32.56 137.11 137.11 0 0 0-.54 16.58 111.6 111.6 0 0 0 1.46 16.44 176.4 176.4 0 0 1 2.74-32.53 145.39 145.39 0 0 1 8.85-31 100.41 100.41 0 0 1 7.24-14.21 82.79 82.79 0 0 1 9.32-12.8 85.83 85.83 0 0 1 24.26-19.24l-.56.06 1-.31-.44.25a98.9 98.9 0 0 1 18.31-.28 89.56 89.56 0 0 1 18.69 3.18 64.83 64.83 0 0 1 17.13 8c5.28 3.62 9.49 8.53 13.2 13.92a47.29 47.29 0 0 0-11.7-15.75ZM4107.54 2067.89h.13l.11-.05Z" class="colord1d2d3 svgShape"/><path fill="#d1d2d3" d="M4182.3 2069.15a71.7 71.7 0 0 0-24.45-8.93 119.73 119.73 0 0 0-26-1.67 149.58 149.58 0 0 0-25.89 3.39h-.11l-.14.05a128.69 128.69 0 0 0-19.43 8.74c-3.18 1.62-6.09 3.68-9.13 5.54-2.85 2.13-5.81 4.12-8.49 6.47a127.6 127.6 0 0 0-27.75 32 161.84 161.84 0 0 0-17.2 38.4 175.09 175.09 0 0 0-4.93 20.37 142 142 0 0 0-2.41 20.73 208.66 208.66 0 0 1 10.8-39.92 180.58 180.58 0 0 1 18.47-36.54 128.78 128.78 0 0 1 12.43-16.1 115.37 115.37 0 0 1 14.62-14 121.73 121.73 0 0 1 35-19.83h-.13l.24-.08-.11.05a143.68 143.68 0 0 1 24.52-3.87 120 120 0 0 1 25 .45 75.33 75.33 0 0 1 23.91 6.86 56.32 56.32 0 0 1 10.48 6.87 60.07 60.07 0 0 1 8.61 9.32 51.2 51.2 0 0 0-7.68-10.31 58.1 58.1 0 0 0-10.23-7.99ZM4066.89 2004.41l-1.18.12c-.32.34-.64.67-.95 1Z" class="colord1d2d3 svgShape"/><path fill="#d1d2d3" d="M4139.21 1975.45a75.58 75.58 0 0 0-16.54-.08 85.13 85.13 0 0 0-31.62 9.74 95.57 95.57 0 0 0-25.34 19.42l1.18-.12-2.13 1.14c.31-.35.63-.68.95-1a153.68 153.68 0 0 0-22.6 3.9 126.21 126.21 0 0 0-22.76 8.27 112.2 112.2 0 0 0-38 29.62 133.94 133.94 0 0 0-23.16 41.85 157.91 157.91 0 0 0-6 23 133.65 133.65 0 0 0-2.49 23.57 173.35 173.35 0 0 1 11.79-45.39 138.1 138.1 0 0 1 24.05-39.53 111.31 111.31 0 0 1 36.51-27.49 137.1 137.1 0 0 1 44.42-11.73l1.24-.12.89-1a95.86 95.86 0 0 1 24.18-19.43 84.44 84.44 0 0 1 29.44-10.19 83.44 83.44 0 0 1 31.37 1.53 118.11 118.11 0 0 1 29.73 11.88 106.88 106.88 0 0 0-29-14.49 78.3 78.3 0 0 0-16.11-3.35ZM4030.23 1949.22c-.79-.17-1.6-.32-2.4-.48-.36.76-.73 1.52-1.07 2.29Z" class="colord1d2d3 svgShape"/><path fill="#d1d2d3" d="M4104.87 1897.77a103.63 103.63 0 0 0-31.94 7.38 84.74 84.74 0 0 0-27.6 18.31 90.82 90.82 0 0 0-17.5 25.28c.8.16 1.61.31 2.4.48l-3.47 1.81c.34-.77.71-1.53 1.07-2.29-16.65-3.22-34.13-3.77-50.88.29a102.6 102.6 0 0 0-25.16 9.51 113.65 113.65 0 0 0-21.83 15.54c-13.25 12-23.68 26.66-31.8 42.27a191.89 191.89 0 0 0-10.49 24.16 169 169 0 0 0-7.16 25.24 221 221 0 0 1 20.8-47.67c8.75-14.88 19.34-28.73 32.32-39.84a103.86 103.86 0 0 1 44.76-23c16.51-3.78 33.85-3.31 50.58.1l2.48.51 1-2.32a88.29 88.29 0 0 1 16.86-26.16 81.81 81.81 0 0 1 25.39-18.13c9.52-4.56 19.91-7.24 30.45-8.87a132.25 132.25 0 0 1 32.13-.74 118 118 0 0 0-32.41-1.86Z" class="colord1d2d3 svgShape"/></g><rect width="373.89" height="333.62" x="423.98" y="1030.92" fill="#cbf0fd" rx="35.07" class="colorcbf0fd svgShape"/><path fill="#0073ff" d="M577.09 1259.82a70.39 70.39 0 0 1-30.59-33h-64.58a132.2 132.2 0 0 0 181.54 92.24V1245a70.73 70.73 0 0 1-86.37 14.82Z" class="color0073ff svgShape"/><path fill="#003db5" d="M673 1231.57a70.49 70.49 0 0 1-45.43 34.88l17.43 59.08a132.21 132.21 0 0 0 94.7-97.53h-64.88c-.57 1.18-1.17 2.38-1.82 3.57Z" class="color003db5 svgShape"/><path fill="#ff8118" d="M674.23 1081.58a132.29 132.29 0 0 0-179.46 52.85c-.19.34-.34.68-.53 1l54.08 29.47c.17-.34.34-.68.52-1A70.7 70.7 0 1 1 673 1231.57c-.18.34-.38.66-.57 1L726.5 1262c.19-.34.39-.65.57-1a132.28 132.28 0 0 0-52.84-179.42Z" class="colorff8118 svgShape"/><path fill="#ff3b1c" d="M678.59 1177.3a70.45 70.45 0 0 1-5.59 54.27c-.18.34-.38.66-.57 1L726.5 1262c.19-.34.39-.65.57-1a131.84 131.84 0 0 0 10.59-101.14Z" class="colorff3b1c svgShape"/><path fill="#84dfff" d="M548.84 1163.9c1-1.83 2.1-3.59 3.23-5.3q-23-13.47-46.17-26.75c-2.58-1.06-5.15-2.14-7.71-3.26-1.17 1.92-2.34 3.85-3.42 5.84a132.27 132.27 0 0 0 51.86 178.89l29.47-54.07a70.69 70.69 0 0 1-27.26-95.35Z" class="color84dfff svgShape"/><path fill="#00a9ff" d="m543.45 1218.78-59.07 17.39a131.92 131.92 0 0 0 62.25 77.15l29.47-54.07a70.48 70.48 0 0 1-32.65-40.47Z" class="color00a9ff svgShape"/><path fill="#ffab00" d="M494.77 1134.43c-.19.34-.34.68-.53 1l54.08 29.47c.17-.34.34-.68.52-1a70.7 70.7 0 0 1 94.9-28.77l29.47-54.07a132.28 132.28 0 0 0-178.44 53.37Z" class="colorffab00 svgShape"/><path fill="#ffce00" d="M494.77 1134.43c-.19.34-.34.68-.53 1l54.08 29.47c.17-.34.34-.68.52-1a70.37 70.37 0 0 1 37.23-32.32l-17.42-59.13a131.7 131.7 0 0 0-73.88 61.98Z" class="colorffce00 svgShape"/><path fill="#ffc83e" d="M3425.89 550.89c-108.26-47.54-233.76-2.14-280.3 101.39-1 2.17-1.84 4.35-2.73 6.53l-.16-.07s-48.61 104.66 11 227.61c0 0 21.85 35.81-8.8 104l43.27 19 52.69 23.13 43.27 19c30.65-68.2 72.19-76.17 72.19-76.17 132.29-38.69 178.29-144.5 178.29-144.5 1-2.12 2.1-4.22 3.07-6.38 46.52-103.55-3.52-226.01-111.79-273.54Z" class="colorffc83e svgShape"/><path fill="#ffffff" d="M3345.15 833.41c-10.62 4.26-23 17-36.9 38L3264.08 852c6.44-24.33 7.73-41.91 3.81-52.56-5.22-14.18-12.51-17.13-17.71-17.08-10.82.07-18.48 12.71-22 24.52-4.5 14.9-4.57 35.82 10 45.74l1 .52 11.26 4.94c-14.83 49.34-45.65 114.21-61.09 143.94l10.3 5.18c.21-.4 21.23-41 40.06-86.2q13.8-33.15 21.37-58.25l41.19 18.09q-13.75 22.33-29.41 54.71c-21.35 44.13-37.71 86.74-37.87 87.17l10.8 4.07c12-31.24 40-97.34 67.11-141.28l12.3 5.29c17.24 4.07 32.9-10 41.07-23.29 6.48-10.53 10.84-24.63 3.64-32.61-3.51-3.8-10.61-7.18-24.76-1.49Zm-91.72 14-9.21-4c-8.5-6.21-8.69-21-5-33 3.25-10.77 8.78-16.75 11.36-16.77 1 0 3.78 2 6.54 9.47 3.31 9.02 1.37 24.99-3.69 44.25Zm102.87 14.29c-6.61 10.75-17.83 20.52-28.19 18.45l-9.21-4c11.07-16.61 21.76-28.75 30.88-32.41 7.49-3 10.8-2.34 11.49-1.56 1.73 1.82.93 9.92-4.97 19.52Z" class="colorfff svgShape"/><path fill="#231f20" d="m3179.33 1123.4-9.23-3.46-8.79-4.45-.45 1-21.44-8s-2.46 19.53 2.49 21.71l10.69 4.69 18 7.91 10.69 4.7c4.95 2.17 18-12.73 18-12.73l-20.41-10.34Z" class="color231f20 svgShape"/><path fill="#a3a6a8" d="M3123.9 1082.61a89 89 0 0 1-.51 18.12 8.11 8.11 0 0 0 4.9 8.53l77.89 34.19a8.25 8.25 0 0 0 9.65-2.13 90.88 90.88 0 0 1 13.26-12.53c5.86-4.6 10.77-7.73 10.77-7.73l-117.37-51.53s.97 5.71 1.41 13.08Z" class="colora3a6a8 svgShape"/><path fill="#a3a6a8" d="M3122.49 1069.53s1 5.71 1.41 13.08a89 89 0 0 1-.51 18.12 8.11 8.11 0 0 0 4.9 8.53l29.75 13.06c2.9-12.64 4.32-29.4 4.32-29.4l-6.84-8.89Z" opacity=".5" class="colora3a6a8 svgShape"/><path fill="#a3a6a8" d="m3123.9 1082.61 105.19 46.18c5.86-4.6 10.77-7.73 10.77-7.73l-117.37-51.53s.97 5.71 1.41 13.08Z" opacity=".5" class="colora3a6a8 svgShape"/><path fill="#f19f4d" d="M3145.59 652.28c-1 2.17-1.84 4.35-2.73 6.53l-.16-.07s-48.61 104.66 11 227.61c0 0 21.85 35.81-8.8 104l43.27 19 13 5.73c27.9-68.47 6-104.36 6-104.36-64.55-133.08-11.93-246.37-11.93-246.37l.18.08c1-2.36 1.9-4.73 3-7.07 29.54-65.73 88.5-109.76 155.84-124.6-87.15-7.07-172.18 38.35-208.67 119.52Z" class="colorf19f4d svgShape"/><path fill="#e6e7e8" d="m3262.17 1096.09-135.88-59.65c-9.76-4.29-21.18-.16-25.38 9.18s.36 20.49 10.12 24.77l135.87 59.66c9.77 4.28 21.19.15 25.39-9.19s-.36-20.48-10.12-24.77Z" class="colore6e7e8 svgShape"/><path fill="#a3a6a8" d="M3100.91 1045.62c-4.2 9.34.36 20.49 10.12 24.77l51.33 22.54a21.49 21.49 0 0 1-2.38-21.37 22 22 0 0 1 17.64-12.59l-51.33-22.53c-9.76-4.29-21.18-.16-25.38 9.18Z" opacity=".5" class="colora3a6a8 svgShape"/><path fill="#a3a6a8" d="m3262.17 1096.09-135.89-59.66a19.71 19.71 0 0 0-20.2 2.54l167.73 73.64a18.26 18.26 0 0 0-1.34-6 19.73 19.73 0 0 0-10.3-10.52Z" opacity=".5" class="colora3a6a8 svgShape"/><path fill="#e6e7e8" d="M3286.34 1075.72a19.71 19.71 0 0 0-10.29-10.49l-135.9-59.66a19.71 19.71 0 0 0-20.2 2.54 17.84 17.84 0 0 0-5.36 20.92 19.58 19.58 0 0 0 10.3 10.49l135.9 59.66c9.75 4.28 21.18.14 25.38-9.18a17.77 17.77 0 0 0 1.51-8.25 18 18 0 0 0-1.34-6.03Z" class="colore6e7e8 svgShape"/><path fill="#a3a6a8" d="M3114.79 1014.75c-4.2 9.34.35 20.49 10.12 24.77l51.33 22.54a21.46 21.46 0 0 1-2.38-21.37 21.94 21.94 0 0 1 17.64-12.59l-51.33-22.53c-9.76-4.29-21.17-.16-25.38 9.18Z" opacity=".5" class="colora3a6a8 svgShape"/><path fill="#a3a6a8" d="m3276.05 1065.23-135.9-59.66a19.71 19.71 0 0 0-20.2 2.54l167.73 73.64a18 18 0 0 0-1.34-6 19.71 19.71 0 0 0-10.29-10.52Z" opacity=".5" class="colora3a6a8 svgShape"/><path fill="#e6e7e8" d="m3289.92 1034.35-135.87-59.65c-9.77-4.29-21.19-.16-25.39 9.18s.36 20.49 10.12 24.78l135.88 59.65c9.76 4.28 21.19.15 25.38-9.19s-.35-20.48-10.12-24.77Z" class="colore6e7e8 svgShape"/><path fill="#a3a6a8" d="M3128.66 983.88c-4.2 9.34.36 20.49 10.12 24.78l51.33 22.53a21.46 21.46 0 0 1-2.37-21.37 21.94 21.94 0 0 1 17.64-12.59l-51.33-22.53c-9.77-4.29-21.19-.16-25.39 9.18Z" opacity=".5" class="colora3a6a8 svgShape"/><path fill="#ffffff" style="mix-blend-mode:screen" d="M3457.9 643.31c-23.07 5.35-34.38 36.88-25.27 70.42s35.22 56.39 58.29 51 34.38-36.88 25.27-70.41S3481 638 3457.9 643.31Z" class="colorfff svgShape"/><path fill="#872020" d="M3300.46 377.58a12.33 12.33 0 0 0-14.1-9.49 11.33 11.33 0 0 0-9.48 13.4l17.75 87.95a12.27 12.27 0 0 0 11.84 9.65 11.59 11.59 0 0 0 11.73-13.56ZM3125.5 451.27a12.33 12.33 0 0 0-17-1 11.31 11.31 0 0 0-.61 16.39l62.43 66.3a12.47 12.47 0 0 0 8.86 3.9 11.91 11.91 0 0 0 8.11-2.91 11.31 11.31 0 0 0 .61-16.39ZM3090.53 654.54l-75.28-30.35a11.9 11.9 0 0 0-15.57 6.19 11.74 11.74 0 0 0 6.79 15.21l75.28 30.35a12.54 12.54 0 0 0 4.45.91 11.49 11.49 0 0 0 4.33-22.31ZM3635.83 524.82l-77.93 45.95a11.24 11.24 0 0 0-3.71 15.93 12.46 12.46 0 0 0 10.22 5.63 12 12 0 0 0 6.36-1.66l77.93-45.94a11.24 11.24 0 0 0 3.71-15.93 12.42 12.42 0 0 0-16.58-3.98ZM3697.84 702.52h-.05l-91.63-1.34a11.48 11.48 0 0 0-11.9 11.43 12.17 12.17 0 0 0 12.08 11.78l91.63 1.33a11.47 11.47 0 0 0 11.9-11.43 12.15 12.15 0 0 0-12.03-11.77ZM3641.86 899.28l-73.25-34.85a12 12 0 0 0-16 5.21 11.66 11.66 0 0 0 5.79 15.57l73.25 34.86a12.69 12.69 0 0 0 5.15 1.22 11.48 11.48 0 0 0 5-22ZM3490.61 413.79a11.94 11.94 0 0 0-15.78 5.71l-34.91 77.67a11.69 11.69 0 0 0 6.29 15.4 12.45 12.45 0 0 0 4.8 1.06 11.69 11.69 0 0 0 11-6.77l34.92-77.68a11.69 11.69 0 0 0-6.32-15.39Z" class="color872020 svgShape"/><path fill="#4c479c" d="M3977.21 1161.32h-632.4c-5.92 0-10.71 5.26-10.71 11.73v264c0 6.49 4.79 11.74 10.71 11.74h632.4c5.91 0 10.72-5.25 10.72-11.74v-264c0-6.47-4.81-11.73-10.72-11.73Z" class="color4c479c svgShape"/><path fill="#ffffff" d="M3466.62 1277.92h104.13v104.13h-104.13z" class="colorfff svgShape"/><path fill="#3ac9df" d="M3412.29 1228.11h104.13v104.13h-104.13z" class="color3ac9df svgShape"/><path fill="#00a9ff" d="M3674.89 1223.58h234.84v31.7h-234.84z" class="color00a9ff svgShape"/><path fill="#f43361" d="M3674.89 1289.24h234.84v31.69h-234.84z" class="colorf43361 svgShape"/><path fill="#ffdb01" d="M3674.89 1354.89h234.84v31.69h-234.84z" class="colorffdb01 svgShape"/><path fill="#412020" d="M923.33 2178.38 2926.16 2760l688.91-454.64v-62.01L902.33 2104.58l21 73.8z" class="color412020 svgShape"/><path fill="#872020" d="m902.33 2104.58 2023.83 588.31 688.91-449.54-1994.26-472.45-718.48 333.68z" class="color872020 svgShape"/><path fill="#fbbf45" d="M879.5 2484.35a501.38 501.38 0 0 0 73 38.94q12.28 5.37 25.4 10.43 9.68 3.74 19.81 7.29l.31.08 7.35 1.95c5.36 1.41 13.23 3.48 22.65 5.94 7.92 2.06 16.94 4.4 26.48 6.84 10.43 2.68 21.48 5.48 32.4 8.22 24.85 6.21 49.06 12 63.8 14.94a43.37 43.37 0 0 0 2.13-9.54l28.82-283.44 9.18-90.23 14-137.65H841.54Z" class="colorfbbf45 svgShape"/><path fill="#f4a01e" d="M1097.16 2139.35c-.06 7.91-.16 16.07-.3 24.4-.87 50.14-3.36 106.95-9.13 158.7-.52 4.69-1.07 9.35-1.65 14-7.09 56.32-18.41 105.09-36.26 130.26-17.13 24.16-42.19 48.19-71.95 67.06q9.68 3.74 19.81 7.29l.31.08 7.35 1.95c5.36 1.41 13.23 3.48 22.65 5.94 7.92 2.06 16.94 4.4 26.48 6.84 10.43 2.68 21.48 5.48 32.4 8.22 24.85 6.21 49.06 12 63.8 14.94a43.37 43.37 0 0 0 2.13-9.54l28.85-283.49 9.18-90.23 14-137.65h-108.22c.45 20.61.81 48.94.55 81.23Z" class="colorf4a01e svgShape"/><path fill="#ffd317" d="M989.39 2143.56c-39.23 5.11-69-26.86-69 20.18 0 0-8.65 292 26.63 313.2s87.41-339.26 42.37-333.38Z" class="colorffd317 svgShape"/><path fill="#a02f48" d="M1143.92 2032.62c-5.75-.94-11.82-1.81-18.17-2.6-21.65-2.7-46.57-4.56-73.42-5.33l-5.86-.15c-3.77-.08-7.57-.15-11.41-.19h-12.93c-28.94.07-56.24 1.4-80.42 3.71-11 1.06-21.35 2.32-30.91 3.75-41.76 6.26-68.51 15.88-68.51 26.67s26.54 20.34 68 26.59c10.1 1.53 21.09 2.86 32.79 3.95 22.26 2.09 47.11 3.35 73.41 3.57h11.06q7.85 0 15.52-.17c2.62 0 5.23-.1 7.81-.17 27-.73 52.18-2.57 74-5.27 6.89-.85 13.46-1.79 19.65-2.81 38.27-6.25 62.45-15.45 62.45-25.71s-24.4-19.59-63.06-25.84Z" class="colora02f48 svgShape"/><path fill="#ffffff" d="M1057 1611.68c-74.64-43.28-216-4.75-226.07 64.07 2.22 4.79 4.51 10.07 6.84 15.75 29.65 71.7 69 210.5 73 340.27q.33 10.77.34 21.44 0 5.46-.09 10.89c0 2.62-.11 5.24-.19 7.84 0 1.28-.08 2.56-.12 3.84v.95c-.05 1.41-.11 2.82-.17 4.23s-.13 2.72-.21 4.07c10.1 1.53 21.09 2.86 32.79 3.95 22.26 2.09 47.11 3.35 73.41 3.57h11.06c2.24-22.06 4.72-45 7.48-68.22 7.36-62.09 16.64-126.27 28.42-181.5 11.12-52.25 24.48-96.49 40.54-123.37a82.38 82.38 0 0 0 2.93-46.77c-4.56-19.69-17.73-42.33-49.96-61.01Z" class="colorfff svgShape"/><path fill="#d1d1d1" d="M908.67 1625.68c-43.11 13.55-62.39 43.45-70.91 65.82 29.65 71.7 69 210.5 73 340.27q.33 10.77.34 21.44 0 5.46-.09 10.89c0 2.62-.11 5.24-.19 7.84 0 1.28-.08 2.56-.12 3.84v.95c-.05 1.41-.11 2.82-.17 4.23s-.13 2.72-.21 4.07c10.1 1.53 21.09 2.86 32.79 3.95 22.26 2.09 47.11 3.35 73.41 3.57h11.06c2.24-22.06 4.72-45 7.48-68.22 7.36-62.09 16.64-126.27 28.42-181.5 11.12-52.25 24.48-96.49 40.54-123.37a82.38 82.38 0 0 0 2.93-46.77c-52.25-54.11-139.18-65.56-198.28-47.01Z" class="colord1d1d1 svgShape"/><path fill="#ffffff" d="M1023.7 1710.82c.91-20.8-3.14-61.45-47.16-71.08-49.55-10.87-91.36 22.76-93.7 69a86.35 86.35 0 0 0 3.93 30.11c40.69 65.77 49.12 122.41 49.12 122.41l98.21-42.26-11.71-95.84a89.88 89.88 0 0 0 1.31-12.34Z" class="colorfff svgShape"/><path fill="#bdbdbd" d="M1023.7 1710.82c-9.64-10-22.52-18.45-39.7-24.19-57.36-19.2-86.89 2.33-101.16 22.07a86.35 86.35 0 0 0 3.93 30.11c40.69 65.77 49.12 122.41 49.12 122.41l98.21-42.22-11.71-95.84a89.88 89.88 0 0 0 1.31-12.34Z" class="colorbdbdbd svgShape"/><path fill="#dedede" d="M969 1732.87c-18.86-7.84-1.92-18.42-1.92-18.42-32.68-21.21-6.9 136.34-6.9 136.34l73.92-31.74s-9.14-75-10.85-95.62c-17.13 13.91-35.41 17.27-54.25 9.44Z" class="colordedede svgShape"/><path fill="#ffffff" d="M1056.29 1767.35a160.9 160.9 0 0 1-26.55 15.44h-.07c-26.48 12.12-53.19 14.91-76.94 9.21-23.46-5.61-44-19.51-58.61-40.87a112.13 112.13 0 0 1-7.33-12.32c.81 2.13 28.56 76.62 44.8 187.79 4.58 31.17 8.23 65.23 10.12 101.38 1 19.73 1.56 40.1 1.4 61 22.26 2.09 47.11 3.35 73.41 3.57h11.06q7.85 0 15.52-.17c2.62 0 5.23-.1 7.81-.17.11-22 .54-44.64 1.42-67.54 1.48-38.32 4.21-77.49 8.82-116.26q.87-7.34 1.83-14.63a927.56 927.56 0 0 1 19.83-105.92 640.24 640.24 0 0 1 21.21-68.38c-14.79 20.09-30.96 35.97-47.73 47.87Z" class="colorfff svgShape"/><path fill="#dedede" d="M1056.29 1767.35c-.11 32.94-9.94 86-60.16 140.14-20.43 22-42.65 25.81-64.54 19.15 4.58 31.17 8.23 65.23 10.12 101.38 1 19.73 1.56 40.1 1.4 61 22.26 2.09 47.11 3.35 73.41 3.57h11.06q7.85 0 15.52-.17c2.62 0 5.23-.1 7.81-.17.11-22 .54-44.64 1.42-67.54 1.48-38.32 4.21-77.49 8.82-116.26q.87-7.34 1.83-14.63a927.56 927.56 0 0 1 19.83-105.92 640.24 640.24 0 0 1 21.21-68.38c-14.79 20.05-30.96 35.93-47.73 47.83Z" class="colordedede svgShape"/><path fill="#ffffff" d="M1125.66 1688.39c-.59 1.39-1.9 4.09-3.74 8-7.05 14.86-22.31 47.17-39.11 91.46-6.34 16.72-12.91 35.15-19.33 55-17 52.44-33 114.74-41.35 181.46-2.81 22.32-4.76 45.13-5.61 68.24h11.06q7.85 0 15.52-.17c2.62 0 5.23-.1 7.81-.17 27-.73 52.18-2.57 74-5.27a521 521 0 0 1 .82-56.94c2-28 6.54-56.62 14.77-84.32 6.27-21.09 12.73-39.89 19.19-56.6 18-46.52 35.9-77 49.64-96 14.49-20.07 24.34-27.5 24.68-27.75a32.41 32.41 0 0 0 4-5.83c5.07-9 11-27.62-8.32-48.26-27.18-29.11-76.16-41.77-104.03-22.85Z" class="colorfff svgShape"/><path fill="#d1d1d1" d="M1193.71 1712.14c-34.46-17.62-59.77-17.42-71.79-15.74-7.05 14.86-22.31 47.17-39.11 91.46-6.34 16.72-12.91 35.15-19.33 55-17 52.44-33 114.74-41.35 181.46-2.81 22.32-4.76 45.13-5.61 68.24h11.06q7.85 0 15.52-.17c2.62 0 5.23-.1 7.81-.17 27-.73 52.18-2.57 74-5.27a521 521 0 0 1 .82-56.94c2-28 6.54-56.62 14.77-84.32 6.27-21.09 12.73-39.89 19.19-56.6 18-46.52 35.9-77 49.64-96 14.49-20.07 24.34-27.5 24.68-27.75a32.41 32.41 0 0 0 4-5.83c-4.73-13.86-16.34-33.08-44.3-47.37Z" class="colord1d1d1 svgShape"/><g clip-path="url(#a)"><path fill="#f0faff" d="M1112.24 1702.92h2.97v89.78h-2.97zM1115.21 1702.92h1.28v89.78h-1.28z" class="colorf0faff svgShape"/><path fill="#eff9ff" d="M1116.5 1702.92h1.28v89.78h-1.28z" class="coloreff9ff svgShape"/><path fill="#eff8fe" d="M1117.78 1702.92h1.28v89.78h-1.28z" class="coloreff8fe svgShape"/><path fill="#eef7fe" d="M1119.07 1702.92h1.28v89.78h-1.28z" class="coloreef7fe svgShape"/><path fill="#edf6fd" d="M1120.35 1702.92h1.28v89.78h-1.28z" class="coloredf6fd svgShape"/><path fill="#edf5fd" d="M1121.63 1702.92h1.28v89.78h-1.28z" class="coloredf5fd svgShape"/><path fill="#ecf4fc" d="M1122.92 1702.92h1.28v89.78h-1.28z" class="colorecf4fc svgShape"/><path fill="#ebf3fc" d="M1124.2 1702.92h1.28v89.78h-1.28z" class="colorebf3fc svgShape"/><path fill="#ebf2fc" d="M1125.49 1702.92h1.28v89.78h-1.28z" class="colorebf2fc svgShape"/><path fill="#eaf1fb" d="M1126.77 1702.92h1.28v89.78h-1.28z" class="coloreaf1fb svgShape"/><path fill="#e9effb" d="M1128.06 1702.92h1.28v89.78h-1.28z" class="colore9effb svgShape"/><path fill="#e9eefa" d="M1129.34 1702.92h1.28v89.78h-1.28z" class="colore9eefa svgShape"/><path fill="#e8edfa" d="M1130.62 1702.92h1.28v89.78h-1.28z" class="colore8edfa svgShape"/><path fill="#e7ecfa" d="M1131.91 1702.92h1.28v89.78h-1.28z" class="colore7ecfa svgShape"/><path fill="#e7ebf9" d="M1133.19 1702.92h1.28v89.78h-1.28z" class="colore7ebf9 svgShape"/><path fill="#e6eaf9" d="M1134.48 1702.92h1.28v89.78h-1.28z" class="colore6eaf9 svgShape"/><path fill="#e5e9f8" d="M1135.76 1702.92h1.28v89.78h-1.28z" class="colore5e9f8 svgShape"/><path fill="#e4e8f8" d="M1137.04 1702.92h1.28v89.78h-1.28z" class="colore4e8f8 svgShape"/><path fill="#e4e7f7" d="M1138.33 1702.92h1.28v89.78h-1.28z" class="colore4e7f7 svgShape"/><path fill="#e3e6f7" d="M1139.61 1702.92h1.28v89.78h-1.28z" class="colore3e6f7 svgShape"/><path fill="#e2e5f7" d="M1140.9 1702.92h1.28v89.78h-1.28z" class="colore2e5f7 svgShape"/><path fill="#e2e4f6" d="M1142.18 1702.92h1.28v89.78h-1.28z" class="colore2e4f6 svgShape"/><path fill="#e1e3f6" d="M1143.46 1702.92h1.28v89.78h-1.28z" class="colore1e3f6 svgShape"/><path fill="#e0e2f5" d="M1144.75 1702.92h1.28v89.78h-1.28z" class="colore0e2f5 svgShape"/><path fill="#e0e1f5" d="M1146.03 1702.92h1.28v89.78h-1.28z" class="colore0e1f5 svgShape"/><path fill="#dfe0f5" d="M1147.32 1702.92h1.28v89.78h-1.28z" class="colordfe0f5 svgShape"/><path fill="#dedff4" d="M1148.6 1702.92h1.28v89.78h-1.28z" class="colordedff4 svgShape"/><path fill="#dedef4" d="M1149.89 1702.92h1.28v89.78h-1.28z" class="colordedef4 svgShape"/><path fill="#ddddf3" d="M1151.17 1702.92h1.28v89.78h-1.28z" class="colorddddf3 svgShape"/><path fill="#dcdcf3" d="M1152.45 1702.92h1.28v89.78h-1.28z" class="colordcdcf3 svgShape"/><path fill="#dcdbf2" d="M1153.74 1702.92h1.28v89.78h-1.28z" class="colordcdbf2 svgShape"/><path fill="#dbdaf2" d="M1155.02 1702.92h1.28v89.78h-1.28z" class="colordbdaf2 svgShape"/><path fill="#dad9f2" d="M1156.31 1702.92h1.28v89.78h-1.28z" class="colordad9f2 svgShape"/><path fill="#dad8f1" d="M1157.59 1702.92h1.28v89.78h-1.28z" class="colordad8f1 svgShape"/><path fill="#d9d7f1" d="M1158.87 1702.92h1.28v89.78h-1.28z" class="colord9d7f1 svgShape"/><path fill="#d8d6f0" d="M1160.16 1702.92h1.28v89.78h-1.28z" class="colord8d6f0 svgShape"/><path fill="#d8d5f0" d="M1161.44 1702.92h1.28v89.78h-1.28z" class="colord8d5f0 svgShape"/><path fill="#d7d4f0" d="M1162.73 1702.92h1.28v89.78h-1.28z" class="colord7d4f0 svgShape"/><path fill="#d6d3ef" d="M1164.01 1702.92h1.28v89.78h-1.28z" class="colord6d3ef svgShape"/><path fill="#d6d2ef" d="M1165.3 1702.92h1.28v89.78h-1.28z" class="colord6d2ef svgShape"/><path fill="#d5d0ee" d="M1166.58 1702.92h1.28v89.78h-1.28z" class="colord5d0ee svgShape"/><path fill="#d5cfee" d="M1167.86 1702.92h1.28v89.78h-1.28z" class="colord5cfee svgShape"/><path fill="#d4ceee" d="M1169.15 1702.92h1.28v89.78h-1.28z" class="colord4ceee svgShape"/><path fill="#d3cded" d="M1170.43 1702.92h1.28v89.78h-1.28z" class="colord3cded svgShape"/><path fill="#d3cced" d="M1171.72 1702.92h1.28v89.78h-1.28z" class="colord3cced svgShape"/><path fill="#d2cbec" d="M1173 1702.92h1.28v89.78H1173z" class="colord2cbec svgShape"/><path fill="#d1caec" d="M1174.28 1702.92h1.28v89.78h-1.28z" class="colord1caec svgShape"/><path fill="#d1c9ec" d="M1175.57 1702.92h1.28v89.78h-1.28z" class="colord1c9ec svgShape"/><path fill="#d0c8eb" d="M1176.85 1702.92h1.28v89.78h-1.28z" class="colord0c8eb svgShape"/><path fill="#cfc7eb" d="M1178.14 1702.92h1.28v89.78h-1.28z" class="colorcfc7eb svgShape"/><path fill="#cfc6ea" d="M1179.42 1702.92h1.28v89.78h-1.28z" class="colorcfc6ea svgShape"/><path fill="#cec5ea" d="M1180.71 1702.92h1.28v89.78h-1.28z" class="colorcec5ea svgShape"/><path fill="#cdc4ea" d="M1181.99 1702.92h1.28v89.78h-1.28z" class="colorcdc4ea svgShape"/><path fill="#cdc3e9" d="M1183.27 1702.92h1.28v89.78h-1.28z" class="colorcdc3e9 svgShape"/><path fill="#ccc2e9" d="M1184.56 1702.92h1.28v89.78h-1.28z" class="colorccc2e9 svgShape"/><path fill="#cbc1e8" d="M1185.84 1702.92h1.28v89.78h-1.28zM1187.13 1702.92h1.28v89.78h-1.28z" class="colorcbc1e8 svgShape"/><path fill="#cac0e8" d="M1188.41 1702.92h1.28v89.78h-1.28z" class="colorcac0e8 svgShape"/><path fill="#cabfe7" d="M1189.69 1702.92h1.28v89.78h-1.28z" class="colorcabfe7 svgShape"/><path fill="#c9bee7" d="M1190.98 1702.92h1.28v89.78h-1.28z" class="colorc9bee7 svgShape"/><path fill="#c8bde6" d="M1192.26 1702.92h1.28v89.78h-1.28z" class="colorc8bde6 svgShape"/><path fill="#c8bce6" d="M1193.55 1702.92h1.28v89.78h-1.28z" class="colorc8bce6 svgShape"/><path fill="#c7bbe6" d="M1194.83 1702.92h1.28v89.78h-1.28z" class="colorc7bbe6 svgShape"/><path fill="#c7bae5" d="M1196.12 1702.92h1.28v89.78h-1.28z" class="colorc7bae5 svgShape"/><path fill="#c6b9e5" d="M1197.4 1702.92h1.28v89.78h-1.28z" class="colorc6b9e5 svgShape"/></g><path fill="#bdbdbd" d="M1115.34 1733.19c-3.1 24 53.51 59.51 53.51 59.51s10.59-20.58 29.83-51.59c-22.51-21.32-44.58-27.47-61.76-28-13.15 7.44-21.58 20.08-21.58 20.08Z" class="colorbdbdbd svgShape"/><path fill="#dedede" d="M1160.37 1727.6c-15.18 19.35-16.5 46.81-16.5 46.81l25 18.29s25.15-30.5 29.83-51.59c-17.42 16.04-38.33-13.51-38.33-13.51Z" class="colordedede svgShape"/><path fill="#ffffff" d="M1183.42 1772.67c-1.1-.12-2.21-.26-3.31-.42a100.12 100.12 0 0 1-34.26-11.48 91.18 91.18 0 0 1-30.52-27.57c-22.52 38.78-40.11 95-52.35 160.58q-1.21 6.54-2.37 13.21c-6.39 37-11.13 76.6-14.14 117.53q-1.23 16.62-2.07 33.49-.86 17.1-1.3 34.37c2.62 0 5.23-.1 7.81-.17 27-.73 52.18-2.57 74-5.27 6.89-.85 13.46-1.79 19.65-2.81a199.12 199.12 0 0 1-1.84-26.12 252.92 252.92 0 0 1 1.18-25.41c2.19-23.49 7.4-49.47 14.85-80.49 25.76-107.2 74.5-185.57 75.26-186.79a82.7 82.7 0 0 1-15.73 5.37 101.82 101.82 0 0 1-34.86 1.98Z" class="colorfff svgShape"/><path fill="#dedede" d="M1209.35 1793.09c-12.47 30.06-29.82 67.1-49.64 96-23.09 33.67-49.52 56.32-75.54 44.11-11.42-5.36-18.75-14-23-24.78-.18-.47-.37-.94-.54-1.42-6.39 37-11.13 76.6-14.14 117.53q-1.23 16.62-2.07 33.49-.86 17.1-1.3 34.37c2.62 0 5.23-.1 7.81-.17 27-.73 52.18-2.57 74-5.27 6.89-.85 13.46-1.79 19.65-2.81a199.12 199.12 0 0 1-1.84-26.12 252.92 252.92 0 0 1 1.18-25.41c2.19-23.49 7.4-49.47 14.85-80.49 25.76-107.2 74.5-185.57 75.26-186.79a82.7 82.7 0 0 1-15.73 5.37c-2.6 6.77-5.59 14.3-8.95 22.39Z" class="colordedede svgShape"/><path fill="#21255c" d="m2988.37 2035.85-702.94-146.45a99.68 99.68 0 0 0-42.16 4.8l-302.92 152.19c-4.69 1.59-1 27.22 3.83 28l680 178.75a99.8 99.8 0 0 0 65.22-11.14l299-167.29c10.69-5.95 12.05-37.61-.03-38.86Z" class="color21255c svgShape"/><path fill="#3f477c" d="m2981.42 2032.62-696-165.43a99.68 99.68 0 0 0-42.16 4.8l-299.52 171.4c-4.69 1.59-4.38 8 .43 8.84l680 178.75a99.8 99.8 0 0 0 65.23-11.19l296.28-164.67c10.72-5.96 7.83-21.25-4.26-22.5Z" class="color3f477c svgShape"/><path fill="#5c6bbb" d="m2264.9 1882.5-.25.08-277.32 155 4.85.85 566.41 141.86.37-.19 284.41-146.92-4.15-.43Zm293.29 295.14-560.73-140.87L2265.18 1885l569.63 149.71ZM2787.1 2095c-20.47.94-37 8.49-36.88 16.85s16.77 14.38 37.25 13.44 37-8.48 36.88-16.85-16.77-14.39-37.25-13.44ZM2779.91 2082l84.58 14.11 20.54-10.17-82.98-13.55-22.14 9.61zM2633.76 2159.3l84.58 14.11 20.54-10.17-82.98-13.55-22.14 9.61zM2678.26 2135.23l84.57 14.11 20.54-10.17-82.98-13.55-22.13 9.61zM2816.75 2060.99l84.58 14.11 20.54-10.17-82.98-13.55-22.14 9.61z" class="color5c6bbb svgShape"/><path fill="#1a2e35" d="m1449.92 2279.29 780.14 212.76 425.54-205.67-822.7-216.31-382.98 209.22z" class="color1a2e35 svgShape"/><path fill="#f77500" d="m1449.92 2248.13 780.14 212.76 425.54-205.67-822.7-216.31-382.98 209.22z" class="colorf77500 svgShape"/><path fill="#f4ac00" d="m2405.37 2259.35 67.98 21.1 67.86-28.37-69.56-19.18-66.28 26.45zM2328.89 2292.78l67.98 21.1 67.86-28.38-69.56-19.18-66.28 26.46zM2252.41 2326.2l67.98 21.1 67.86-28.37-69.56-19.18-66.28 26.45zM2321.16 2236.34l67.98 21.11 67.86-28.38-69.56-19.18-66.28 26.45zM2244.68 2269.77l67.98 21.1 67.86-28.37-69.56-19.18-66.28 26.45zM2168.2 2303.19l67.98 21.11 67.86-28.38-69.56-19.18-66.28 26.45zM2236.95 2213.33l67.98 21.11 67.86-28.38-69.56-19.18-66.28 26.45zM2160.47 2246.76l67.98 21.1 67.86-28.37-69.56-19.18-66.28 26.45zM2083.99 2280.18l67.98 21.11 67.86-28.38-69.56-19.18-66.28 26.45zM2152.74 2190.33l67.98 21.1 67.86-28.38-69.56-19.17-66.28 26.45zM2076.26 2223.75l67.98 21.1 67.86-28.37-69.56-19.18-66.28 26.45zM1999.78 2257.18l67.98 21.1 67.86-28.37-69.56-19.18-66.28 26.45z" class="colorf4ac00 svgShape"/><path fill="#f48619" d="m1955.11 1820-604.49-146.29c2.68 10.71 57.87 332.43 84.79 489.65 8.75 51.09 14.51 84.81 14.51 84.81l780.14 212.77-102.83-599.34Z" class="colorf48619 svgShape"/><path fill="#375a64" d="M2173.29 2130c-1.14.19 10.64 74.42 26.32 165.78s29.31 165.29 30.45 165.1-10.64-74.42-26.32-165.81-29.31-165.25-30.45-165.07Z" class="color375a64 svgShape"/><path fill="#f77500" d="M1955.11 1820c16.31 73.64 59.92 305.83-23.94 364.09-75.48 52.45-360.38 5.49-495.76-20.73 8.75 51.09 14.51 84.81 14.51 84.81l780.14 212.77-102.83-599.34Z" class="colorf77500 svgShape"/><path fill="#d64800" d="M1449.92 2248.12v31.17l780.14 212.76v-31.16l-780.14-212.77zM2230.06 2492.05l425.54-205.67v-31.16l-425.54 205.67v31.16z" class="colord64800 svgShape"/><path fill="#d64800" d="m2127.23 1861.6 102.83 599.29 19.91-9.12-102.42-609.02-20.32 18.85z" class="colord64800 svgShape"/><path fill="#ffb300" d="m1350.62 1673.66 776.61 187.94 20.32-18.85-774.27-180.1-22.66 11.01z" class="colorffb300 svgShape"/><path fill="#e05700" d="m1666.93 2011.64 10.17 55.01 178.96 48.24-10.17-55.01-178.96-48.24z" class="colore05700 svgShape"/><path fill="#412020" d="m3111.63 2413.08-.34-.24-375.86 59.61s49.76 50.58 100.8 70.9 140.28 45.81 140.28 45.81l70.74-66.8c26.08-24.63 214.24-140.63 254.75-155.22l-45.51-22.49ZM2672.52 2427.48c31.66 25.25 36.72 20.87 53.43 30l59.61-155.54-151.72 96.36s7.02 3.92 38.68 29.18ZM2834.37 2266.43c-78 49.83 164.61 0 164.61 0l.24-1.45-62-81.66c-13.98 22.12-47.15 47.52-102.85 83.11Z" class="color412020 svgShape"/><path fill="#ffe164" d="m3018.19 2232.34-345.67 195.14c57.14 46.21 78 66.18 120.36 83.23 79.86 32.15 175.24 33.25 175.24 33.25 102.18-52 195.68-110.81 278.31-175.15l39.92-31.09s-108.54-9.57-146.87-23.9c-38.18-14.27-72.59-42.49-121.29-81.48Z" class="colorffe164 svgShape"/><path fill="#ffe164" d="M2997.16 2212.35c-13.24-15-18.74-26.74-18.74-26.74l-173.21 90.49a1490.83 1490.83 0 0 0-155 101.25s-8.67 25.05 22.34 50.13l14-7.91 331.66-187.24a170.43 170.43 0 0 1-21.05-19.98Z" class="colorffe164 svgShape"/><path fill="#fccb57" d="M2856.53 2242.2c-71.66 36-136.45 77.47-192.22 123.24-9.09 7.46-14.13 11.91-14.13 11.91s-8.67 25.05 22.34 50.13c0 0 77.75-174.38 324.64-215.13-16.09-17.1.89-41.24.89-41.24Z" class="colorfccb57 svgShape"/><path d="M2855.67 2448.73a31.93 31.93 0 0 0-11.32-2.4 46.8 46.8 0 0 0-13.5 1.22q1.61-9.86-10.5-15.3-8.62-3.87-21.39-2.1t-21.16 7.44a71 71 0 0 0-11 8.82q-4.08 4.17-3 6.23c.71 1.38 3.54 3.45 8.48 6.24q4 2.26 4.2 2.38l46.06 29a12.3 12.3 0 0 0 6.76 1.53 12.52 12.52 0 0 0 6.87-1.88q20.81-14 25.7-25.12t-6.2-16.06Zm-49.24 9.45a51.61 51.61 0 0 1-5.34 3l-9-5.75-9.33-5.78a23.85 23.85 0 0 1 2.19-1.59l4.57-3.08a26.14 26.14 0 0 1 10.79-3.9q6.48-1 9.9.55 5.44 2.45 4.29 7.14t-8.07 9.41Zm38.5 7q-4.6 5.6-15.49 13.85l-16.27-10.28q8.26-5.23 12.18-7.87 2.19-1.49 9.05-3.25t10.64-.06q4.49 2.04-.11 7.63ZM2927 2417.64q-3.48-1.57-14.91-.41a165.38 165.38 0 0 0-20.14 3.18q11.07-16.18-5.12-23.46a37.31 37.31 0 0 0-13.14-3 69.15 69.15 0 0 0-15.6.91 102 102 0 0 0-12.69 2.78 75.66 75.66 0 0 0-11.6 5 105 105 0 0 0-10.56 6.27c-2.62 1.76-3.8 3.57-3.58 5.44a6.59 6.59 0 0 0 3.44 4.73l44.65 28.38q9.43 6.27 10.75 6.86a11 11 0 0 0 5.46.8 11.21 11.21 0 0 0 5.51-1.85q2.68-1.8 2.73-4.13c0-1.55-1-3-3.09-4.18l-13.94-8q20.54-7.72 46.38-9a12.36 12.36 0 0 0 6.3-1.81q2.82-1.9 2.52-4.51t-3.37-4Zm-48.71-3.94q-2.1 5.61-13.89 13.55l-1.89 1.28-23-14.51 4.66-2.8a45.71 45.71 0 0 1 17.15-5.63q10.22-1.49 15.36.83 3.72 1.67 1.62 7.28ZM2975.17 2384.33a11.38 11.38 0 0 0-5.11-.87 10.73 10.73 0 0 0-5.46 1.73c-1.67 1.07-3.76 2.46-6.25 4.18l-5.79 4-19.56-12.24q-12.7-8.09-20.61-13.81 11.63-6.24 13.78-7.7 2.94-2 2.85-4.47t-3.77-4.15a10.05 10.05 0 0 0-4.47-.92 11.56 11.56 0 0 0-4.44 1.07q-2.19 1-10.75 5.74t-14.28 8.61q-9.46 6.38-12.66 8.81t-2.77 4.84c.3 1.6 1.45 2.85 3.47 3.76a11.12 11.12 0 0 0 5.82.83 10.59 10.59 0 0 0 5.25-1.84l9.28-6.65q10.28 8.09 41.39 27.12a66.48 66.48 0 0 1-7.26 5.68c-1.93 1.31-2.8 2.8-2.59 4.5s1.39 3 3.54 4a11 11 0 0 0 5.48.81 11.29 11.29 0 0 0 5.45-1.82 75.78 75.78 0 0 0 7.79-6.34 130.94 130.94 0 0 1 11.06-8.47l4.25-3q2.42-1.74 4.21-2.95l3.08-2.08q2.82-1.89 2.56-4.41t-3.49-3.96ZM3032 2350.82a10.89 10.89 0 0 0-6.29-.75 11.58 11.58 0 0 0-5.94 2.76c-2 1.74-3.21 2.73-3.59 3l-12.76 8.94-3.43 2.31c-3.35 2.26-5.34 3.37-6 3.35a8.25 8.25 0 0 1-2.73-.83q-5-2.27-16.76-10.4 9.57-7.47 16.34-13t10.16-8.2c2.2-1.75 3.07-3.34 2.63-4.78a6 6 0 0 0-3.6-3.46 10.91 10.91 0 0 0-5.59-.89 11.56 11.56 0 0 0-5.47 1.94q-2.34 1.57-9.92 7.7-10.64 8.72-15.59 12.61-6.36-4.38-16.8-11.06a70.08 70.08 0 0 1 13.07-11.47 85.61 85.61 0 0 1 15.76-8.19 11.1 11.1 0 0 0 2.2-1.14q2.78-1.86 2.41-4.43c-.25-1.7-1.49-3.06-3.74-4.07q-4.7-2.11-13.22 1.79a107 107 0 0 0-15.29 8.47 81.52 81.52 0 0 0-15.8 14 10.42 10.42 0 0 0-4.71 1.64c-1.85 1.25-2.84 2.49-3 3.72a3.46 3.46 0 0 0 1.51 3.25 43.14 43.14 0 0 0 6.92 4q6.41 2.88 21.46 14.1 17.33 12.73 25.9 16.59a31.28 31.28 0 0 0 15 3.1q7-.51 21.26-10.11 17-11.45 19-14.77t-3.39-5.72ZM3056.12 2337.24l-27.25-17.1q6-6.6 9.16-8.73c2.17-1.46 4.57-2.92 7.18-4.38s5.16-3 7.36-4.51q2.67-1.8 2.45-4.4c-.14-1.73-1.41-3.14-3.8-4.21q-4.18-1.87-9.63.66a125.42 125.42 0 0 0-15.53 9.33 50.48 50.48 0 0 0-9.38 8.53q-4.57-3.09-14.41-9.09a128.86 128.86 0 0 1 12.65-10.23 74.88 74.88 0 0 1 15.61-8.26 10.58 10.58 0 0 0 2.71-1.2c1.88-1.27 2.67-2.76 2.38-4.49a4.62 4.62 0 0 0-2.81-3.66q-3.53-1.59-14 2.51t-15.73 7.63a125.78 125.78 0 0 0-15.41 12.6 10.34 10.34 0 0 0-3.52 1.58q-2.73 1.84-2.7 4t2.57 3.82c1.72 1.07 3.39 2.19 5 3.35 1.43 1 3.07 2.09 4.93 3.25l49.81 31.3a10.84 10.84 0 0 0 5.91 1.6 10.34 10.34 0 0 0 5.79-1.73q2.82-1.89 2.95-4.28a4.21 4.21 0 0 0-2.29-3.89Z" fill="#000000" class="color000 svgShape"/></g></svg>
