<svg xmlns="http://www.w3.org/2000/svg" viewBox="0 0 4680 3120"><g data-name="3"><path fill="#ffba55" d="M3427.57 939.8c-53.93-44.48-129.63-52.17-198.21-40.87s-133.26 39.24-199.86 59.35c-258.93 78.17-551.65 31.2-774.2-124.23-69.65-48.64-132.54-107.09-204.62-151.93-112.33-69.87-245.68-104.42-377.22-97.75-51.47 2.6-103 11.46-151 30.31-173.26 67.94-277.49 261.73-281.46 450.23-2 94.9 15.32 189.12 48.74 277.67 22.59 59.84 49.21 118.56 82.75 173 14 22.73 29.14 45.79 46.85 65.72q3 3.32 5.86 6.54c23.46 26 43.49 47.79 39.09 86.82-4.44 39.49-26.42 75.2-44.15 109.73-39.87 77.63-105.25 140.55-138 221.53-56 138.47.11 307 111.66 404.93S1661 2542.92 1808 2531.1s287.55-65.36 422.48-125.79c500.3-224 972.68-572 1210.24-1072 30.39-64 57.08-131.51 60.6-202.43s-19.46-146.3-73.75-191.08Z" class="colorffba55 svgShape"/><path fill="#187eb2" d="M2924.15 1453.14a147.14 147.14 0 0 0-56.37-81.14l-21.72-15.54a62.48 62.48 0 0 0-26.62-10.91l-176.55-28-5.11-60.06-2.29-3.12c3.31-17.32 5.61-35.51 7.21-52 4.8-49.6-17.72-98.62-51.94-131.35-.7-.67-1.48-1.27-2.23-1.91-55.32-46.93-121.46-64.2-193.62-56.7-25.69 2.66-68.24 21.86-81.93 32 0 0-97.69 27.53-131.27 18.2 0 0 44.78 21.15 65.3 20.53 0 0-28 53.48-81.47 52.24 0 0 12.74 23.83 49.43 28.48a233.52 233.52 0 0 0-7.51 27.19s-2.32 6.87-4.69 17.62c-6.38 16.81-20.86 39.42-52.45 38.12 0 0 22.54 12 47.57 10.1a110.86 110.86 0 0 0 5.22 31.09l-8.09 118.3c-20.3 33.75-99.07 165-107.07 182-2.06 4.39 6.41 12.43 20.77 22.26-26.25 46.48-54.6 92.13-78.42 119.93-58.88 68.69 71.47 185.74 122.53 123.66 52.3-44.5 104.05-164.31 104.05-164.31l-1.43-.9c13.72 6.53 22.46 10.55 22.46 10.55s21.2-47.1 30.62-79.38c-.21 17.26 4 68.76 56.7 109.26 0 0 42.52 94.22-6.89 202.23l434.34 18.42.73-104c16.37 22.31 31.33 39.59 43.05 47.75 0 0 31.56 16.1 50.24 3.87 13-8.54 40.47-51.55 55.88-76.78 4.34-2.82 7-7.74 8.51-14.15l2.59-4.39s-.32-2.56-1-7c.75-11.78-.37-26.18-1.38-41.08-1.7-25-7-70.42-16.87-112l42.54 5.67Z" class="color187eb2 svgShape"/><path d="M2180.68 1254.83c-20.88 14.63-84.6 74.71 15.61 244.06 0 0 30.53-95.27 29.59-117.87s-24.32-140.81-45.2-126.19Z" fill="#000000" class="color000 svgShape"/><path fill="#ffa992" d="M2809.74 1588.4c-41.79-13.93-106.81 17.42-112.61 22.06 0 0 38.31 183.44 111.45 229.87s68.5 1.17 65-49.92-22.04-188.08-63.84-202.01Z" class="colorffa992 svgShape"/><path fill="#fe5a2c" d="m2790.1 1408.18-21.72-15.55a62.66 62.66 0 0 0-26.62-10.91l-217.51-34.46s-85 234.41-117.2 268.88-133.49-98.61-165.66-199.72-119.3 18.17-119.3 18.17-102.63 170.32-111.82 189.85 189.95 111.2 189.95 111.2l30.93-85.33s-8 65.8 56.4 115.2c0 0 42.51 94.23-6.9 202.24l434.35 18.38 2.3-326.33 182 24.26-52.8-194.75a147.15 147.15 0 0 0-56.4-81.13Z" class="colorfe5a2c svgShape"/><path fill="#d6270b" d="M2471.55 1456.71c-35.9 2.39-100.94 179.39-100.94 179.39s128.86-17.45 167.95-118.77c0 0-31.11-63.02-67.01-60.62Z" class="colord6270b svgShape"/><path d="m2426.33 1588.27-2.54-.14-10.68 207.39-.02.28 69.08 175.39 2.37-.93-68.87-174.88 10.66-207.11z" fill="#000000" class="color000 svgShape"/><path fill="#621112" d="M2143.25 944.25a6.79 6.79 0 0 0-11.08.35l-26.72 40.31-78.87-73.55a6.8 6.8 0 0 0-9.27 9.94l84.74 79a6.8 6.8 0 0 0 10.3-1.21l25.85-39 47.49 62.64a6.8 6.8 0 1 0 10.83-8.21ZM2033.11 1410.69l-119.23-33.58a6.79 6.79 0 0 0-8.63 7l4.43 71-153.91-15.9a6.8 6.8 0 0 0-1.39 13.52l161.88 16.72a5.48 5.48 0 0 0 .7 0 6.78 6.78 0 0 0 6.78-7.22l-4.33-69.48 110 31a6.8 6.8 0 0 0 3.68-13.09ZM2294.88 845.5a6.8 6.8 0 0 0-10-4.88l-67.65 36.87-54.6-157.59a6.8 6.8 0 1 0-12.85 4.45l57.27 165.17a6.8 6.8 0 0 0 9.68 3.74l66.27-36.12L2303 979a6.79 6.79 0 0 0 6.7 5.7 6.89 6.89 0 0 0 1.1-.09 6.78 6.78 0 0 0 5.61-7.8ZM2595.27 838.24 2521 817.72l70.25-151.28a6.8 6.8 0 0 0-12.33-5.72l-73.62 158.55a6.81 6.81 0 0 0 4.35 9.42l72.77 20.1L2512 950.26a6.8 6.8 0 0 0 11.17 7.75l75.84-109.34a6.81 6.81 0 0 0-3.78-10.43ZM2808.68 873.39l-102.8 106.16a6.8 6.8 0 0 0 1 10.32l51.3 35.41-83.15 60.61a6.8 6.8 0 0 0 8 11l90.9-66.26a6.8 6.8 0 0 0-.14-11.08l-52.58-36.3 97.21-100.39a6.8 6.8 0 0 0-9.76-9.46Z" class="color621112 svgShape"/><path fill="#ffa992" d="M1983.86 1815.61c49.41 248.19 195.34-89.61 195.34-89.61l-135.59-85Z" class="colorffa992 svgShape"/><path fill="#d6270b" d="M2648.89 1487.56s-2.33 99.8 34.71 152.5c17.27 24.57 187.32 40 187.32 40-84.45-29.46-222.03-192.5-222.03-192.5ZM2168.18 1719.15l32 16.49s22.62-50.24 31.52-82.5-1.12-81.77-1.12-81.77c-2.18 70.63-62.4 147.78-62.4 147.78ZM2439.79 1611.76l-15.1.14-10.31 183.68 27.91 87.72 32.13-.52s-39.8-66.85-43.68-81.07 9.05-189.95 9.05-189.95Z" class="colord6270b svgShape"/><path fill="#ffba55" d="m2424.69 1611.9-54.42 13.82-5.59 184.62 26.99 70.94 59.43.46-36.72-86.15 10.31-183.69z" class="colorffba55 svgShape"/><path fill="#d6270b" d="M2509.54 1553.08s136.22 295.28 189.49 328.76l38.81-3-199.28-361.47ZM2425.44 1339.14s3.6 122.84 21.07 125.41l59.11 54.48 18.5-47.28s-42.66-160.36-98.68-132.61Z" class="colord6270b svgShape"/><path fill="#ffa992" d="M2221 1252.56c-36.58 37.93-52.41 107.31-10.42 177.74 3.54 5.94 19.8 79.57 40.12 108s73.49 96.62 103.29 93.91c0 0 31.82 7.86 70.75-20.33a171.66 171.66 0 0 0 52.6-62.41l32-63.94s13.77-199.12-36.35-252-215.47-18.9-251.99 19.03Z" class="colorffa992 svgShape"/><path fill="#fe5a2c" d="M2311.06 1264.6c-61.19 10.72-125 25-125 25s-16.52 27.69 0 65.2c1.21 2.74 12.95 16.08 70.12 12.06 0 0-14.29-20.54-17.42-32.6 0 0 34.39 49.12 121.47 5.36l-20.59-11.62s65.2 23.67 120.58 9.82c0 .02-87.98-83.94-149.16-73.22Z" class="colorfe5a2c svgShape"/><path fill="#621112" d="M2513.07 1107.22c-.7-.67-1.47-1.28-2.22-1.91-55.32-46.93-121.46-64.2-193.62-56.71-25.7 2.67-68.24 21.86-81.93 32 0 0-97.69 27.53-131.28 18.2 0 0 43 30 63.56 29.38 0 0-26.24 44.63-79.73 43.39 0 0 12.74 23.83 49.43 28.47a235.14 235.14 0 0 0-7.51 27.2s-2.32 6.87-4.68 17.61c-6.39 16.82-20.86 39.42-52.45 38.12 0 0 22.54 12 47.56 10.11.7 19.6 5.41 39.88 18.53 55.05l16.48-33c-.47 3.71 1.48 16.25 22.78 28 32.46 17.91 62.69 16.68 62.69 16.68l-23.59-54.28s45.41 48.71 77.88 42 42.91-8.71 42.91-8.71-36.84-13.13-49.15-40c0 0 41.36 28.49 76.62 28 9.14-.13 23.3 2.42 32.35 3.79 15.14 2.28 32.13 2.17 45.75-4.65 0 0 35.57 13.14 42.28 43.37s57.09-12.32 69.4-66.05c4.79-20.9 7.89-44.17 9.89-64.81 4.79-49.47-17.72-98.47-51.95-131.25Z" class="color621112 svgShape"/><path fill="#ffffff" d="M2392.86 1675.88a9.78 9.78 0 1 0 9.78 9.78 9.78 9.78 0 0 0-9.78-9.78Z" class="colorfff svgShape"/><path fill="#911a20" d="M2446.34 1085.16c-36.69-12.59-70.6-10.63-75.75 4.37s28.23 27.42 64.92 40 62.77 20.59 67.92 5.58-20.43-37.37-57.09-49.95ZM2303.78 1070c-20.82 1.62-37.08 10.84-36.32 20.62s18.24 16.38 39.06 14.77 37.08-10.85 36.32-20.62-18.25-16.38-39.06-14.77ZM2359.38 1272.34c-17.65-11.16-36.21-13.48-41.44-5.2s4.83 24 22.48 35.2 60.69 14.08 65.93 5.79-29.35-24.64-46.97-35.79ZM2236.46 1291.48c-4.52 3.58-2 14.28 5.62 23.91s30.93 19.64 35.45 16.06-11.47-19.39-19.09-29-17.44-14.55-21.98-10.97ZM2166.09 1298.8c-4.52 3.57-2 14.28 5.62 23.91s30.93 19.64 35.45 16.06-11.47-19.39-19.09-29-17.46-14.55-21.98-10.97Z" class="color911a20 svgShape"/><path fill="#fe5a2c" d="M2266.57 1475.2a28.55 28.55 0 1 0 28.54 28.54 28.54 28.54 0 0 0-28.54-28.54Z" opacity=".65" class="colorfe5a2c svgShape"/><circle cx="2432.66" cy="1471.25" r="28.55" fill="#fe5a2c" opacity=".65" class="colorfe5a2c svgShape"/><path d="M2325.19 1561.31a74.6 74.6 0 0 0-19.77 14.77l93.08-9.83a85.6 85.6 0 0 0-25.28-11 67.15 67.15 0 0 0-48.03 6.06ZM2388.88 1415.07c-4.59 0-8.31 9.76-8.31 21.79s3.72 21.79 8.31 21.79 8.3-9.76 8.3-21.79-3.72-21.79-8.3-21.79Z" fill="#000000" class="color000 svgShape"/><ellipse cx="2270.59" cy="1443.09" rx="8.3" ry="21.79" fill="#000000" class="color000 svgShape"/><path fill="#fe5a2c" d="m2311.25 1503.73 26.97 16.6-10.37-49.8-16.6 33.2z" class="colorfe5a2c svgShape"/><path d="M2423.77 1399.26c-9.82-5.45-20.48-11.15-32.08-10.32s-21.69 7.59-31 14.1c-2.67 1.87-.12 6.29 2.57 4.4 8.47-5.93 17.76-12.59 28.42-13.4s20.46 4.6 29.5 9.62c2.88 1.59 5.46-2.81 2.59-4.4ZM2299.37 1412.1c-9.31-6.53-19.3-13.24-31-14.1s-22.28 4.87-32.08 10.31c-2.87 1.59-.3 6 2.57 4.4 9-5 18.81-10.43 29.51-9.62s19.94 7.48 28.41 13.41c2.71 1.88 5.22-2.5 2.59-4.4Z" fill="#000000" class="color000 svgShape"/><path fill="#ffffff" d="M2256.82 1373.15a64.62 64.62 0 1 0 64.61 64.62 64.69 64.69 0 0 0-64.61-64.62Zm0 122.95a58.34 58.34 0 1 1 58.34-58.33 58.4 58.4 0 0 1-58.34 58.33ZM2397.4 1352.89a64.62 64.62 0 1 0 64.6 64.61 64.69 64.69 0 0 0-64.6-64.61Zm0 122.95a58.34 58.34 0 1 1 58.34-58.34 58.4 58.4 0 0 1-58.34 58.34Z" class="colorfff svgShape"/><path fill="#ffffff" d="M2319.12 1427.96h16.95v6.27h-16.95z" transform="rotate(-7.76 2328.406 1431.545)" class="colorfff svgShape"/><path fill="#ffffff" d="M2325.19 1561.31a169.4 169.4 0 0 0 22.8-1.25 162.48 162.48 0 0 0 25.23-4.86 67.15 67.15 0 0 0-48.03 6.11Z" class="colorfff svgShape"/><path fill="#ffa992" d="m2868.68 1809.22-.33-1.58c-8.45-40-26.38-98.62-60.63-114.71l-.77-.37c-10.79-5.2-22.75-13.86-35-24.36-48.36-41.49-100.78-111.8-100.78-111.8l-100.47-137.82-10.6-124.88-29.3-40-34.8-56.7-25.76-12.88 13.42 25.72c-5.7-10.64-22-39.61-31.45-41.19-11.59-1.92-26.74 1.93-26.74 1.93l.16.18 4.16 4.49-.78-.73c-10.37-9.53-20.48-17-27-17.45l-4.24 2.31a7 7 0 0 0-2.84 2.8 7.2 7.2 0 0 0 2 9.32l14.62 13s10.89 6.44 29.09 48.59c12.9 29.88 20.41 49 23.22 56.09.76 2 1.18 3 1.25 3.15l-69.55-73.41-31.46 1.12a10.62 10.62 0 0 0-8.32 4.5 16.32 16.32 0 0 0-2.19 4.12c-.68 2-.7 4.07.75 5.71 4.51 5.16 28.34 3.87 28.34 3.87s12.23 21.89 21.89 34.77 33.49 46.38 33.49 46.38 4.51 109.48 11.59 122.36 49 39.81 49 39.81l68.18 150.83s134.6 257.6 191.92 297.54c0 0 31.55 16.1 50.23 3.86 14.4-9.43 45.72-56 59.32-77q.36-.54.72-1.14a32.35 32.35 0 0 0 4.15-21.35c-.95-6.44-2.42-15.15-4.49-25.08Z" class="colorffa992 svgShape"/><path fill="#ffa992" d="M2518.52 1284.46c.52-7.54-32.81-70.68-32.81-70.68Z" class="colorffa992 svgShape"/><path fill="#fe5a2c" d="m2804.71 1690.77-34.14-24.52 8.48 11.86s65.59 71.86 70 130.91c0 0 4.7-58.74-38.71-112.93a28.24 28.24 0 0 0-5.63-5.32Z" class="colorfe5a2c svgShape"/><path fill="#621112" d="M2486.54 1250c-1-1.62-25.24-39.73-30.46-45.78s-30-33.61-30.28-33.89l-.64.57c.25.28 25.07 27.85 30.27 33.87s29.24 43.86 30.36 45.62l11.62 49.25.83-.19-11.64-49.32ZM2515.23 1260.57l-36.88-59.98-.72.44 36.81 59.89 11.97 40.34.82-.24-11.99-40.4-.01-.05z" class="color621112 svgShape"/><path fill="#ff775c" d="M2873.39 1793.76c-3 11.62-12.27 38-18 51.45-35.2 82.46-64.39 73.19-64.39 73.19-67.64-11.11-271-434.06-271-434.06l-51.33-62.62-13.52-99.52s-58.38-88-66.72-93.58c-4.85-3.23-21.68-1.75-34.86.05-.68 2-.7 4.07.75 5.71 4.51 5.16 28.34 3.87 28.34 3.87s12.23 21.89 21.89 34.77 33.49 46.38 33.49 46.38 4.51 109.48 11.59 122.36 49 39.81 49 39.81l68.18 150.83s134.6 257.6 191.92 297.54c0 0 31.55 16.1 50.23 3.86 14.4-9.43 45.72-56 59.32-77 4.34-6.64 8.57-17.33 7.38-25.18-.99-6.8-.02-27.28-2.27-37.86ZM2394.91 1162.22a7.2 7.2 0 0 0 2 9.32l14.62 13s10.89 6.44 29.09 48.59c12.9 29.88 20.41 49 23.22 56.09 7.72 8.25 16.07 16 16.39 16.33-.33-1-22.12-68.54-43.38-101.62-13.16-20.5-30.51-34.19-41.94-41.71Z" class="colorff775c svgShape"/><path fill="#d6270b" d="M2856.9 1638c-17.35 20.71-58.76-2.8-58.76-2.8l26.86 39.18 74.27 9.7-36.21-132.83s11.19 66.02-6.16 86.75ZM2178.62 1533.38s-27.71 56-29.61 76.47-16.85 84.75-16.85 84.75 57.33 38.84 68.06 41-23.22-38.6-27.22-79.79 5.62-122.43 5.62-122.43Z" class="colord6270b svgShape"/><path fill="#ffa992" d="m2127.56 1293-13.2 193.09s-97.38 205.47-161.74 280.56c-63.94 74.59 95.21 206.16 133.74 103.6.26-.68.52-1.39.77-2.1 37.12-106.45 61.88-258.28 61.88-258.28l34.39-80.08a102.84 102.84 0 0 0 1.49-77.36c-7.33-19.17-14.47-44.88-15.25-73.61-1.65-61.06-4.13-87.47-4.13-87.47l18.16-24.75s33-13.21 41.25-23.11a29.84 29.84 0 0 0 4.83-8.7 63.48 63.48 0 0 0 3.43-19.36l-56.12 14.85Z" class="colorffa992 svgShape"/><path fill="#ff775c" d="M2147.13 1367.2c-1.48 17.9 20.88 117.27 19.88 132.18s-38.76 105.35-38.76 105.35l-88.45 288.2c15.69 4.22 31.46-5.27 46.56-22.7.26-.68.52-1.39.77-2.1 37.12-106.45 61.88-258.28 61.88-258.28l34.39-80.08a102.84 102.84 0 0 0 1.49-77.36c-7.33-19.17-14.47-44.88-15.25-73.61-1.65-61.06-4.13-87.47-4.13-87.47l18.16-24.75s33-13.21 41.25-23.11a29.84 29.84 0 0 0 4.83-8.7c-101.22 20.51-81.18 115.29-82.62 132.43Z" class="colorff775c svgShape"/><path fill="#d6270b" d="M2171.12 1638.71c-9.88 25.91 16 69.44 16 69.44l18.43-49.94c-27.76 21.36-34.43-19.5-34.43-19.5Z" class="colord6270b svgShape"/><path fill="#ff8569" d="M2721.65 1401.88c-23.94 13.83 13.46 43.11 41.12 91s35.08 96.28 59 82.45 20.94-63.86-6.71-111.76-69.46-75.51-93.41-61.69Z" class="colorff8569 svgShape"/><path fill="#ffcac0" d="M2644.3 1568.49c-11 8.43 18.9 62 63.36 120.16s81.24 108.88 92.26 100.45-16.07-62.41-60.53-120.57-84.07-108.47-95.09-100.04ZM2576.77 1481.51c-4.58 3.28 1.41 19.46 13.36 36.12s25.36 27.52 29.94 24.24-1.41-19.46-13.37-36.13-25.36-27.51-29.93-24.23ZM2524.07 1314.6c-18.36 0 1.57 23 1.57 50s3.91 50.66 22.27 50.66 9.4-24.86 9.4-51.82-14.88-48.84-33.24-48.84Z" class="colorffcac0 svgShape"/><path fill="#ff8569" d="M2478.06 1620.15c-26.81 0-37.85 77.6-37.85 135.77s38.19 109.44 65 109.44 0-55.39 0-113.55-.34-131.66-27.15-131.66ZM2257.09 1619.86c-11.87 4.4-10.8 36.82 2.38 72.43s33.49 60.91 45.36 56.52-5.78-30.5-19-66.11-16.83-67.23-28.74-62.84Z" class="colorff8569 svgShape"/><path d="m2852.61 1717.75 46.66-33.69-72.58-33.7 25.92 67.39z" fill="#000000" class="color000 svgShape"/><path fill="#d6270b" d="m2300.66 1880.07 49.61 3.1c-1.44-50.18-53.86-108.17-61.73-116.61 9.34 13.14 12.12 113.51 12.12 113.51ZM2287.55 1765.51l1 1a4.38 4.38 0 0 0-1-1Z" class="colord6270b svgShape"/><path fill="#ffffff" d="M2393.46 1752.82a9.78 9.78 0 1 0 9.78 9.78 9.78 9.78 0 0 0-9.78-9.78Z" class="colorfff svgShape"/><path fill="#d6270b" d="m2536.73 1880.37-12.84-.12c4.48.22 8.76.25 12.84.12ZM2616.14 1760.55s26.27 116.38-79.41 119.82l162.3 1.47Z" class="colord6270b svgShape"/><path fill="#a53f13" d="M838.05 2296.53h1980.36l492.86-415.7H1295.23l-457.18 415.7z" class="colora53f13 svgShape"/><path fill="#fe5a2c" d="M838.05 2296.53v54.73h1983.02l-7.6-63.94-1975.42 9.21z" class="colorfe5a2c svgShape"/><path fill="#16a3db" d="m2821.07 2351.26 483.83-406.15 6.37-64.28-498.86 405.21 8.66 65.22z" class="color16a3db svgShape"/><path d="M1450.54 1232.49c-43 7.08-86.66 12.29-130.28 12-21.37-.15-43.27-1.4-63.83-7.65-7.91-2.4-14.8-5.28-21.65-10.37-12.63-9.38-22.84-21.69-34.4-32.29-39.26-36-97.23-46.72-147.41-29.38a138.7 138.7 0 0 0-34.52 17.4c-12.5 8.8-22.9 19.76-33 31.17-9.8 11.06-19.54 22.67-31.61 31.36a114.15 114.15 0 0 1-30.29 15.59c-43.28 14.57-95.34 5.5-129-26.17a117 117 0 0 1-12-13.25c-2.55-3.26-8.15-2.67-10.82 0-3.21 3.22-2.55 7.55 0 10.82 30.6 39.17 83.3 55.88 131.58 49a132.1 132.1 0 0 0 65.95-28.72c23.36-19.41 39-46.53 65.6-62.18 43.87-25.8 102.87-23.65 144.15 6.38 21.46 15.61 36.34 40.1 61.25 50.91 19.64 8.52 41.5 11.1 62.7 12.19 46.46 2.4 93.36-3 139.22-10l12.43-2c4.08-.67 6.35-5.73 5.34-9.41-1.19-4.39-5.32-6.07-9.41-5.4ZM3586.22 1150.08c-37.59 10.72-77 15.86-115.66 21.25-47.84 6.69-95.86 12.13-143.94 16.77-46.29 4.46-92.57 8.64-139.11 6.19-71.55-3.75-141.88-18.44-213.08-25.51-65.91-6.55-134.3-6.76-198 13.64q-11.73 3.75-23.13 8.45c-3.82 1.56-6.53 5.08-5.34 9.41 1 3.61 5.56 6.91 9.41 5.34 61.9-25.38 129.59-28.4 195.56-23.43 70.85 5.33 140.61 20 211.41 25.82a632 632 0 0 0 93.22 1.15c18.37-1.2 36.71-2.76 55-4.45q71.78-6.6 143.25-16.07c41.56-5.54 83.55-11.07 124.31-21.13q5.09-1.24 10.12-2.68c9.49-2.69 5.47-17.45-4.02-14.75Z" fill="#000000" class="color000 svgShape"/><path fill="#fe5a2c" d="M3659.52 1125.02h62.17v17.76h-62.17zM3659.52 1166.46h62.17v17.76h-62.17z" class="colorfe5a2c svgShape"/><path fill="#621112" d="M3568.87 1096h118.91v118.91h-118.91z" class="color621112 svgShape"/><path fill="#187eb2" d="M1927.37 956.94c-14.09-138.81-136.65-239.78-273.74-225.51s-236.81 138.37-222.71 277.19 136.65 239.78 273.74 225.51a246.69 246.69 0 0 0 117.55-44.29l32.53 10.15 66.59 20.79-15.52-68.78-9.92-44a254.14 254.14 0 0 0 31.48-151.06Z" class="color187eb2 svgShape"/><path fill="#fe5a2c" d="M1709.51 693.07C1571.7 693.07 1460 806.2 1460 945.75s111.72 252.67 249.53 252.67a246 246 0 0 0 121.4-31.89l31.35 13.47 64.13 27.58-8.49-70-5.43-44.8a253.64 253.64 0 0 0 46.57-147c-.06-139.58-111.74-252.71-249.55-252.71Z" class="colorfe5a2c svgShape"/><path fill="#ffffff" d="M1586 912.14s-32.44 71.48-25.44 86.94c5.37 11.87 14.49 22.66 26.5 14.16a30.92 30.92 0 0 0 12.58-21.24c3.2-24.55 22-91.43 76.69-123.63 71.06-41.84 145-24.47 145-24.47s25.44-7.73 8.9-30.91-180.61-15.48-244.23 99.15Z" class="colorfff svgShape"/><path fill="#ffffff" d="M1703 905.7c-59.15 34.13-61.06 112-61.06 112 19.08 34.78 35.62 3.87 35.62 3.87s-8.9-19.32 28-67 97.94-27 97.94-27c26.71 0 14-32.2 14-32.2s-55.32-23.8-114.5 10.33Z" class="colorfff svgShape"/><ellipse cx="1772.68" cy="1019.36" fill="#ffffff" rx="41.66" ry="42.18" class="colorfff svgShape"/><ellipse cx="1728.68" cy="684.75" fill="#ffffff" rx="89.21" ry="90.33" class="colorfff svgShape"/><path fill="#fe5a2c" d="m1710.46 636.94-12.09 2.18 13.68 67.33 8.56-1.54-10.15-67.97zM1718.34 717.09c-4.28.78-6.78 5-5.88 10.08s4.56 8.2 9 7.4 6.76-5.15 5.89-10.08-4.47-8.21-9.01-7.4Z" class="colorfe5a2c svgShape"/><path fill="#fe5a2c" d="m1725.62 708.5-11.46-76.73-21 3.8 15.45 76Zm-18.87-66.39 8.85 59.2h-.07l-11.92-58.66ZM1726.2 714.55a11.42 11.42 0 0 0-8.64-1.81c-6.71 1.21-10.78 7.75-9.46 15.2a13.81 13.81 0 0 0 5.53 9.13 11.33 11.33 0 0 0 6.5 2 12.18 12.18 0 0 0 2.08-.18c6.82-1.24 10.79-7.63 9.46-15.21a13.92 13.92 0 0 0-5.47-9.13Zm-5.56 15.66a2.47 2.47 0 0 1-2-.4 5.21 5.21 0 0 1-1.87-3.4c-.38-2.12.19-4.58 2.31-5a3.42 3.42 0 0 1 .62-.06 2.34 2.34 0 0 1 1.39.43 5.27 5.27 0 0 1 1.81 3.44c.1.49.74 4.45-2.26 4.99Z" class="colorfe5a2c svgShape"/><path fill="#0c8478" d="M3062.11 797.65c-88.12-3.13-162.26 70.63-165.61 164.74a179 179 0 0 0 17.2 83.63l-9.27 21.1-19 43.18 44.43-4.22 28.42-2.71a152.13 152.13 0 0 0 91.7 35.1c88.12 3.13 162.26-70.63 165.6-164.74s-65.35-172.95-153.47-176.08Z" class="color0c8478 svgShape"/><path fill="#4cbfbc" d="M3045.87 765.17c-88.12-3.13-162.26 70.63-165.6 164.75a178.82 178.82 0 0 0 17.19 83.62l-9.27 21.1-19 43.18 44.43-4.22 28.42-2.7a152.19 152.19 0 0 0 91.7 35.1c88.12 3.13 162.26-70.63 165.61-164.75S3134 768.3 3045.87 765.17Z" class="color4cbfbc svgShape"/><path fill="#ffffff" d="m3114.64 895.78-13.35-16.38-52.34 42.67-45.44-50.35-15.68 14.16 44.72 49.56-60.21 49.09 13.34 16.38 61.04-49.76 52.57 58.25 15.68-14.15-51.85-57.47 51.52-42z" class="colorfff svgShape"/><path fill="#10405f" d="M1615.52 1536.09a133.46 133.46 0 0 0-17.08-84.41c-39.08-66.73-128.54-87-199.82-45.26s-97.38 129.68-58.3 196.41 128.54 87 199.82 45.26a156.67 156.67 0 0 0 53.86-52l20-3 40.9-6.24-24-30.92Z" class="color10405f svgShape"/><path fill="#16a3db" d="M1609.26 1511a133.52 133.52 0 0 0-17.08-84.41c-39.08-66.74-128.54-87-199.82-45.26s-97.36 129.67-58.3 196.45 128.54 87 199.82 45.26a156.85 156.85 0 0 0 53.86-52l20-3 40.89-6.24-24-30.91Z" class="color16a3db svgShape"/><path fill="#ffffff" d="m1533.07 1465.72-12.77-15.66-50.06 40.81-43.45-48.15-15 13.53 42.77 47.4-57.59 46.95 12.77 15.66 58.38-47.59 50.27 55.72 15-13.54-49.59-54.96 49.27-40.17z" class="colorfff svgShape"/><path fill="#fe5a2c" d="M1546.56 2013.73a108.64 108.64 0 0 0-51.23-47.86c-57.45-25.75-126.32 3.12-153.82 64.48s-3.22 132 54.23 157.73 126.32-3.12 153.82-64.48a127.74 127.74 0 0 0 11.1-59.94l11.8-11.47 24.15-23.47-30.52-9.14Z" class="colorfe5a2c svgShape"/><path fill="#ffba55" d="M1538.76 1989.21a108.67 108.67 0 0 0-49.4-49.75c-56.45-27.88-126.35-1.61-156.13 58.68s-8.16 131.76 48.28 159.65 126.35 1.61 156.13-58.68a127.7 127.7 0 0 0 13.34-59.48l12.22-11 25-22.55-30.16-10.28Z" class="colorffba55 svgShape"/><path fill="#ffffff" d="m1481.4 2007.89-41.26 29.19-31.35-39.91-12.43 9.76 30.86 39.29-47.47 33.58 9.13 12.91 48.12-34.04 36.27 46.18 12.43-9.77-35.78-45.55 40.61-28.73-9.13-12.91z" class="colorfff svgShape"/><circle cx="2405.39" cy="1840.82" r="9.78" fill="#ffffff" class="colorfff svgShape"/><path fill="#ffffff" d="M1667.24 1302.33h64.38v64.38h-64.38zM1855.22 1568.21H1894v38.78h-38.78zM2014.43 1175.92h38.78v38.78h-38.78z" class="colorfff svgShape"/><path fill="#ffba55" d="M1128.06 2432.72h108.74v108.74h-108.74zM2524.6 2423.38h108.74v108.74H2524.6z" class="colorffba55 svgShape"/><path fill="#4cbfbc" d="M3472.75 1652.71h108.74v108.74h-108.74z" class="color4cbfbc svgShape"/><path fill="#a53f13" d="M3022.64 1305.47h108.74v108.74h-108.74z" class="colora53f13 svgShape"/><path fill="#ffffff" d="M3132.71 1556.51h44.73v44.73h-44.73zM3336.07 1268.41h57.54v57.54h-57.54z" class="colorfff svgShape"/><path fill="#d6270b" d="M3312.01 664.44h57.54v57.54h-57.54z" class="colord6270b svgShape"/><path fill="#ffba55" d="M3732.3 832.24h40.7v40.7h-40.7zM3869.7 1628.7h40.7v40.7h-40.7z" class="colorffba55 svgShape"/><path fill="#16a3db" d="M1767.39 360h40.7v40.7h-40.7z" class="color16a3db svgShape"/><path fill="#ffba55" d="M3744.55 1396.21h59.04v59.04h-59.04zM2231.24 541.47h59.04v59.04h-59.04z" class="colorffba55 svgShape"/><path fill="#4cbfbc" d="M1020.69 652.72h163.47v163.47h-163.47z" class="color4cbfbc svgShape"/><path fill="#16a3db" d="M2267.11 2570.05h77.72v77.72h-77.72z" class="color16a3db svgShape"/><path fill="#fe5a2c" d="M997.32 1713.5h108.74v108.74H997.32z" class="colorfe5a2c svgShape"/><path fill="#ffba55" d="M1142.54 1501.05h60.47v60.47h-60.47zM3349.28 2070.54h60.47v60.47h-60.47z" class="colorffba55 svgShape"/><path fill="#fe5a2c" d="M2544.34 2718.25h41.75V2760h-41.75z" class="colorfe5a2c svgShape"/><path fill="#ffba55" d="M1296.38 559.44h60.47v60.47h-60.47z" class="colorffba55 svgShape"/><path fill="#fe5a2c" d="M1375.52 2605.39h64.02v64.02h-64.02z" class="colorfe5a2c svgShape"/><path fill="#ffcac0" d="M2108.09 1563.73c-10.53-4-28.83 18.47-40.9 50.18s-13.31 60.68-2.79 64.68 15.11-30.12 27.17-61.84 27.04-49.02 16.52-53.02Z" class="colorffcac0 svgShape"/><path fill="#681b00" d="m2457.2 2167.56 97.32 118.93 257.89-.45 169.27-139.76-82.51-123.27-441.97 144.55z" class="color681b00 svgShape"/><path fill="#fe5a2c" d="m2454.37 2111.8 211.61 28.62 230.42-172.13-214.13-17.11-227.9 160.62z" class="colorfe5a2c svgShape"/><path fill="#ffba55" d="m2454.37 2111.8 2.83 55.76 214.7 28.44-2.83-55.76s-215.68-27.36-214.7-28.44Z" class="colorffba55 svgShape"/><path fill="#16a3db" d="m2666.28 2139.61 5.62 56.41 227.27-173.01-2.77-54.72-230.12 171.32z" class="color16a3db svgShape"/><path fill="#d6270b" d="m2666.28 2139.61 230.12-171.32-214.13-17.11-15.99 188.43z" class="colord6270b svgShape"/><path fill="#681b00" d="M1406.41 2287.3h718.5l361.62-316.92-753.34 74.73-326.78 242.19z" class="color681b00 svgShape"/><path fill="#ffba55" d="m2228.01 2084.44 7.25 24.8 251.27-138.86-5.97-23.92-252.55 137.98z" class="colorffba55 svgShape"/><path fill="#16a3db" d="m1733.19 2045.11 496.25 38.87 251.12-137.52-454.08-74.01-293.29 172.66z" class="color16a3db svgShape"/><path fill="#ffffff" d="m2184.9 2055.22 209.85-102.44-264.38-44.61 54.53 147.05z" class="colorfff svgShape"/><path fill="#187eb2" d="m1577.74 1644.53 155.45 400.58 502.23 62.78-131.53-423.01-526.15-40.35z" class="color187eb2 svgShape"/><circle cx="1891.01" cy="1852.58" r="66.5" fill="#ffffff" class="colorfff svgShape"/><path fill="#10405f" d="M1845.32 1667.52s299.76 221 361.06 359.32l-102.49-342ZM2206.38 2026.84l10.27 34.27c-1.34-10.65-4.89-22.11-10.27-34.27Z" class="color10405f svgShape"/><path fill="#fe5a2c" d="m1577.74 1644.53 155.45 400.58 502.23 62.78s-149.2-23.32-317.18-68.91-340.5-394.45-340.5-394.45Z" class="colorfe5a2c svgShape"/></g></svg>
