<svg xmlns="http://www.w3.org/2000/svg" viewBox="0 0 4680 3120"><g data-name="8"><path fill="#ffba55" d="M2978.2 1381.23c-62.2-210.71 117.54-429.46 74.74-644.23-23.74-119.16-120.56-223.37-244.13-262.73-135.2-43.08-283.47-8-404.92 66-256 130.25-443.19 373-443.19 373-676 662.5-730.89 1061.13-711.28 1228 1.36 59.74 19 117.6 59 168.91 107.79 138.21 275.32 169.12 441 132.93s318.29-116.44 486-143.26c134.22-21.46 274.88-7.1 400.85 40.93 94.6 36.07 182 90.89 282.24 109.83 167.27 31.61 344.4-47.43 449.16-172.45 70-83.54 112.88-191.74 92.88-295.9-48.05-250.34-410.02-355.8-482.35-601.03Z" class="colorffba55 svgShape"/><path fill="#911a20" d="M1786.54 875.64c-22.39-35.2-42.24-63.84-79.39-77.54-41.52-15.31-89.78-3.92-110.73 52.89-9.65 26.18-11.3 57.57-4.2 78.7l38.79.84c-5.82-16.18-5.09-38.36 1.47-56.14 12-30.93 36.42-39.89 64.29-29.61 24.58 9.06 41.33 29.27 62.08 62.18 23.67 36.79 52.62 57.57 83.22 65.48l14.56 4.25 14.21-38.53-14.38-4.75c-28.41-8.79-49.53-25.56-69.92-57.77ZM1950.79 957c-20.22-7.45-38.79-.83-45.17 16.46s3.27 34.88 23.49 42.33c19.12 7 38.24.64 44.62-16.66 6.74-18.3-3.82-35.13-22.94-42.13ZM2019.44 747.84c-15.58-25.32-20.43-51.85-14.56-89.52 6.34-41.23 10.27-75.86-8.66-110.63-21.16-38.87-65-62.09-118.15-33.14-24.51 13.34-46.42 35.87-55 56.45l28.64 26.18c6.27-16 21.43-32.21 38.08-41.28 29.41-15.35 53.67-6 67.87 20.07 12.53 23 11.82 49.25 5.76 87.68-6.42 43.27 1.68 78 19.49 104.08l8.16 12.79 36.07-19.63ZM2030.08 810.33c-16.19 8.81-20.51 28.4-10.21 47.33 9.74 17.9 28.36 25.66 44.54 16.85 17.11-9.31 20.23-28.91 10.49-46.81-10.3-18.92-28.64-26.18-44.82-17.37Z" class="color911a20 svgShape"/><path fill="#157c77" d="M3022.71 844c-115.66 95.53-138.48 262.22-58.51 387.11l-23.88 70.3 75.15-9.48c107.67 98.25 272.69 105.82 386.78 11.58 125.14-103.36 141.61-290 36.8-416.9S3147.84 740.67 3022.71 844Z" class="color157c77 svgShape"/><path fill="#4cbfbc" d="M2996.34 801.86c-115.66 95.54-138.48 262.23-58.51 387.12l-23.87 70.3 75.14-9.48c107.68 98.25 272.69 105.82 386.79 11.58 125.13-103.36 141.61-290 36.8-416.9s-291.22-145.97-416.35-42.62Z" class="color4cbfbc svgShape"/><path fill="#ffffff" d="M3185.73 850.65s-105.19-20.8-123.43-6.5c-14 11-25.37 26.66-10.24 40.07a42 42 0 0 0 32.22 10.1c33.58-3.51 128.29.45 188.58 63.63 78.33 82.08 79.12 186.84 79.12 186.84s18.44 31.69 43.84 2.13-37.66-247.35-210.09-296.27Z" class="colorfff svgShape"/><path fill="#ffffff" d="M3063.76 959.35c-40 36.67 6.34 49 6.34 49s22.74-18.1 97.79 16.26 67.39 122.86 67.39 122.86c8.6 35.85 47.18 8.54 47.18 8.54s13.77-81.84-50.51-150.38-168.19-46.28-168.19-46.28Z" class="colorfff svgShape"/><path fill="#fc3508" d="M3090.29 1079.37a57.5 57.5 0 1 0 69.32 42.51 57.5 57.5 0 0 0-69.32-42.51ZM3331.33 884.6a20.06 20.06 0 0 0-28.36 1.15l-142.81 154.92a20.06 20.06 0 0 0 1.15 28.35 20.07 20.07 0 0 0 28.36-1.15L3332.48 913a20.07 20.07 0 0 0-1.15-28.35Z" class="colorfc3508 svgShape"/><path fill="#d6270b" d="M1776.42 1130.49c-89.93-93.16-239.42-94.75-333.9-3.56s-98.15 240.65-8.22 333.81c83.12 86.11 217.13 94 311.54 22.67l57.39 14.66-12.17-59.19c71.51-91.71 67.35-223.44-14.64-308.39Z" class="colord6270b svgShape"/><path fill="#fe5a2c" d="M1815.37 1113.13c-89.93-93.16-239.42-94.76-333.89-3.57s-98.16 240.65-8.23 333.81c83.13 86.11 217.13 94 311.54 22.67l57.4 14.66-12.19-59.19c71.52-91.71 67.37-223.44-14.63-308.38Z" class="colorfe5a2c svgShape"/><path fill="#ffffff" d="M1602.69 1227.05c0 22.75.39 40.52 2 60l-.39.22a427.8 427.8 0 0 0-23.79-47.45L1538 1166h-18.68v146h16.12v-62.4c0-24.26-.39-41.81-1.38-60.23l.59-.21c6.69 15.81 15.54 32.49 24.78 48.74l42.07 74.1h17.3v-146h-16.12Z" class="colorfff svgShape"/><path fill="#ffffff" d="M1597.06 1227.05c0 11.39.1 21.93.43 32.36-3.69-7.27-7.73-14.7-12.14-22.38l-44.09-76.7h-27.56v157.28h27.38v-68c0-13-.12-24.12-.37-34.39 4 7.76 8.54 16.17 13.83 25.47l43.69 76.95h26.21v-157.31h-27.38Zm4.44 68.19 9-5-.29-3.62c-1.61-20-1.94-38.3-1.94-59.56v-55.47h4.86v134.77h-8.4l-40.45-71.25c-11-19.28-18.75-34.59-24.48-48.16l-2.09-4.94-9.53 3.51.22 4.14c1 18.2 1.37 35.57 1.37 59.93v56.77H1525v-134.78h9.8l40.84 71.06a423.89 423.89 0 0 1 23.49 46.82ZM1702.36 1163.57c-35.38 0-61.53 30.33-61.53 76.7 0 44.19 24.57 74.09 59.57 74.09 33.81 0 61.54-26.65 61.54-76.91 0-43.33-23.4-73.88-59.58-73.88Zm-1 135.41c-26.93 0-42.27-28-42.27-59.15 0-32.06 14.16-60.88 42.47-60.88 28.51 0 42.27 30.33 42.27 59.37.02 33.14-15.32 60.68-42.45 60.68Z" class="colorfff svgShape"/><path fill="#ffffff" d="M1702.36 1157.94c-39.54 0-67.16 33.86-67.16 82.33 0 46.94 26.81 79.72 65.2 79.72a62 62 0 0 0 47.71-21.56c12.73-14.77 19.45-35.85 19.45-61 0-22.73-6-42.33-17.44-56.69-11.86-14.91-28.37-22.8-47.76-22.8Zm-2 150.8a48.1 48.1 0 0 1-38.54-18.39c-10.08-12.46-15.41-29.78-15.41-50.08 0-21.18 5.61-39.22 16.23-52.17a49.83 49.83 0 0 1 39.68-18.9c32.27 0 54 27.43 54 68.25-.01 43.3-21.96 71.29-55.92 71.29Z" class="colorfff svgShape"/><path fill="#ffffff" d="M1701.58 1173.33c-28.77 0-48.1 26.72-48.1 66.5 0 17 4.26 32.71 12 44.38 8.7 13.15 21.46 20.4 35.93 20.4 14.86 0 27.35-7.07 36.12-20.45 7.72-11.78 12-28.06 12-45.84 0-16.42-4-31.89-11.3-43.55-8.82-14.03-21.47-21.44-36.65-21.44Zm36.64 65c0 38-18.5 55-36.84 55-24.05 0-36.64-26.92-36.64-53.52 0-27.5 11.39-55.25 36.84-55.25 11.26 0 20.36 5.43 27.05 16.15 6.1 9.78 9.59 23.47 9.59 37.61ZM1521.17 1351.27a13.47 13.47 0 0 1 6.29 1.43l1-3.62a15.39 15.39 0 0 0-7.4-1.53c-9.66 0-16.27 7.29-16.27 18 0 11.26 6.61 17.37 15.4 17.37a18.4 18.4 0 0 0 8.22-1.63l-.83-3.52a14.76 14.76 0 0 1-6.56 1.43c-7.58 0-12-5.4-12-13.8-.02-8.98 4.85-14.13 12.15-14.13Z" class="colorfff svgShape"/><path fill="#ffffff" d="M1521.17 1352a12.85 12.85 0 0 1 5.94 1.34l.82.44 1.36-5.07-.49-.28c-.66-.38-3.19-1.62-7.77-1.62-10 0-17 7.71-17 18.77s6.34 18.11 16.14 18.11a19 19 0 0 0 8.58-1.72l.49-.27-1.18-5-.85.45a14 14 0 0 1-6.21 1.34c-7 0-11.24-4.88-11.24-13.06-.01-8.43 4.24-13.43 11.41-13.43Zm-12.89 13.43c0 9 4.87 14.54 12.71 14.54a16.76 16.76 0 0 0 6-1.11l.49 2.06a19.18 19.18 0 0 1-7.37 1.29c-9 0-14.66-6.37-14.66-16.63s6.24-17.3 15.53-17.3a15.74 15.74 0 0 1 6.53 1.18l-.58 2.18a15 15 0 0 0-5.81-1.12c-7.9.01-12.84 5.72-12.84 14.92ZM1545.07 1347.55c-8.32 0-14.46 7.14-14.46 18 0 10.39 5.77 17.42 14 17.42 8 0 14.47-6.27 14.47-18.08 0-10.15-5.5-17.34-14.01-17.34Zm-.23 31.84c-6.33 0-9.94-6.57-9.94-13.9 0-7.54 3.33-14.32 10-14.32s9.94 7.13 9.94 14c-.01 7.75-3.62 14.22-10 14.22Z" class="colorfff svgShape"/><path fill="#ffffff" d="M1544.89 1350.43c-7.41 0-10.73 7.56-10.73 15.06 0 7.27 3.67 14.64 10.68 14.64 6.32 0 10.73-6.17 10.73-15 0-10.13-5.57-14.7-10.68-14.7Zm-.05 28.22c-6 0-9.2-6.62-9.2-13.16 0-6.76 2.86-13.58 9.25-13.58s9.2 6.85 9.2 13.22c0 9.34-4.65 13.52-9.25 13.52Z" class="colorfff svgShape"/><path fill="#ffffff" d="M1545.07 1346.82c-9 0-15.2 7.71-15.2 18.77 0 10.69 6.06 18.16 14.74 18.16 10.51 0 15.21-9.45 15.21-18.82 0-10.84-5.93-18.11-14.75-18.11Zm-.46 35.45c-7.81 0-13.27-6.86-13.27-16.68 0-10.18 5.65-17.3 13.73-17.3s13.27 6.69 13.27 16.64c0 10.53-5.34 17.34-13.73 17.34ZM1583.91 1362.48c0 5.35.09 9.53.46 14.11l-.1.05a99.13 99.13 0 0 0-5.59-11.15l-10-17.38h-4.39v34.34h3.79v-14.67c0-5.71-.1-9.83-.33-14.16h.14a111.63 111.63 0 0 0 5.83 11.46l9.89 17.42h4.07v-34.34h-3.79Z" class="colorfff svgShape"/><path fill="#ffffff" d="M1583.17 1362.48c0 3.68 0 7 .21 10.35-1.18-2.48-2.52-5-4.06-7.71l-10.2-17.74h-5.55v35.81h5.27v-15.41c0-4.23 0-7.56-.17-10.74 1.17 2.45 2.62 5.18 4.42 8.35l10.11 17.8h5.23v-35.81h-5.26Zm.74 15.2 1.23-.67v-.48c-.38-4.73-.46-9-.46-14v-13.63h2.32v32.86h-2.9l-9.68-17a110.13 110.13 0 0 1-5.79-11.38l-.27-.65-1.32.48v.55c.23 4.29.33 8.38.33 14.12v13.93H1565v-32.86h3.23l9.77 17a99.56 99.56 0 0 1 5.55 11.08ZM1614.32 1362.48c0 5.35.1 9.53.47 14.11l-.1.05a100.85 100.85 0 0 0-5.59-11.15l-10-17.38h-4.4v34.34h3.79v-14.67c0-5.71-.09-9.83-.32-14.16h.14a113.54 113.54 0 0 0 5.82 11.46l9.9 17.42h4.06v-34.34h-3.79Z" class="colorfff svgShape"/><path fill="#ffffff" d="M1613.58 1362.48c0 3.68.05 7 .22 10.35-1.18-2.48-2.52-5-4.06-7.71l-10.2-17.74H1594v35.81h5.27v-15.41c0-4.23 0-7.56-.16-10.74 1.17 2.45 2.62 5.18 4.42 8.35l10.11 17.8h5.23v-35.81h-5.27Zm.75 15.2 1.23-.67v-.48c-.38-4.73-.46-9-.46-14v-13.63h2.31v32.86h-2.89l-9.68-17a110.13 110.13 0 0 1-5.79-11.38l-.27-.65-1.32.48v.55c.23 4.29.32 8.38.32 14.12v13.93h-2.31v-32.86h3.23l9.77 17a101.32 101.32 0 0 1 5.55 11.08ZM1629.16 1366.35h12.12v-3.67h-12.12v-10.85h12.81v-3.72h-16.83v34.34h17.52v-3.72h-13.5v-12.38z" class="colorfff svgShape"/><path fill="#ffffff" d="M1629.9 1367.09h12.1v-5.15h-12.1v-9.37h12.81v-5.19h-18.31v35.81h19V1378h-13.5Zm12 12.38v2.24h-16v-32.86h15.35v2.24h-12.81v12.33h12.12v2.19h-12.12v13.86ZM1662.45 1351.27a13.4 13.4 0 0 1 6.28 1.43l1-3.62a15.46 15.46 0 0 0-7.4-1.53c-9.66 0-16.27 7.29-16.27 18 0 11.26 6.61 17.37 15.39 17.37a18.45 18.45 0 0 0 8.23-1.63l-.83-3.52a14.8 14.8 0 0 1-6.57 1.43c-7.58 0-12-5.4-12-13.8.01-8.98 4.86-14.13 12.17-14.13Z" class="colorfff svgShape"/><path fill="#ffffff" d="M1662.45 1352a12.91 12.91 0 0 1 5.94 1.34l.82.44 1.36-5.07-.5-.28c-.66-.38-3.18-1.62-7.76-1.62-10 0-17 7.71-17 18.77s6.33 18.11 16.13 18.11a19.09 19.09 0 0 0 8.56-1.69l.49-.27-1.19-5-.84.45a14.08 14.08 0 0 1-6.22 1.34c-7 0-11.23-4.88-11.23-13.06-.01-8.46 4.29-13.46 11.44-13.46Zm-12.9 13.43c0 9 4.87 14.54 12.71 14.54a16.81 16.81 0 0 0 6.06-1.11l.48 2.06a19.14 19.14 0 0 1-7.37 1.29c-9 0-14.65-6.37-14.65-16.63s6.24-17.3 15.53-17.3a15.78 15.78 0 0 1 6.53 1.18l-.59 2.18a15 15 0 0 0-5.8-1.12c-7.96.01-12.9 5.72-12.9 14.92ZM1672.43 1351.88h9.48v30.57h4.07v-30.57h9.52v-3.77h-23.07v3.77z" class="colorfff svgShape"/><path fill="#ffffff" d="M1671.69 1352.62h9.48v30.57h5.55v-30.57h9.52v-5.24h-24.55Zm1.48-3.77h21.59v2.3h-9.52v30.56h-2.59v-30.56h-9.48ZM1698.97 1348.11h4.02v34.33h-4.02z" class="colorfff svgShape"/><path fill="#ffffff" d="M1698.23 1383.19h5.5v-35.81h-5.5Zm1.48-34.34h2.54v32.86h-2.54ZM1722.64 1347.55c-8.32 0-14.47 7.14-14.47 18 0 10.39 5.78 17.42 14 17.42 8 0 14.46-6.27 14.46-18.08.01-10.15-5.49-17.34-13.99-17.34Zm-.23 31.84c-6.34 0-9.94-6.57-9.94-13.9 0-7.54 3.33-14.32 10-14.32s9.94 7.13 9.94 14c-.02 7.75-3.62 14.22-10 14.22Z" class="colorfff svgShape"/><path fill="#ffffff" d="M1722.45 1350.43c-7.41 0-10.72 7.56-10.72 15.06 0 7.27 3.67 14.64 10.68 14.64 6.31 0 10.72-6.17 10.72-15 0-10.13-5.53-14.7-10.68-14.7Zm0 28.22c-6 0-9.2-6.62-9.2-13.16 0-6.76 2.86-13.58 9.24-13.58s9.2 6.85 9.2 13.22c-.04 6.73-2.9 13.52-9.28 13.52Z" class="colorfff svgShape"/><path fill="#ffffff" d="M1722.64 1346.82c-9 0-15.21 7.71-15.21 18.77 0 10.69 6.06 18.16 14.75 18.16 10.5 0 15.2-9.45 15.2-18.82 0-10.84-5.92-18.11-14.74-18.11Zm-.46 35.45c-7.82 0-13.27-6.86-13.27-16.68 0-10.18 5.64-17.3 13.73-17.3 7.93 0 13.26 6.69 13.26 16.64 0 10.53-5.38 17.34-13.72 17.34ZM1761.47 1362.48c0 5.35.09 9.53.46 14.11l-.09.05a100.85 100.85 0 0 0-5.59-11.15l-10-17.38h-4.39v34.34h3.79v-14.67c0-5.71-.09-9.83-.32-14.16h.14a113.54 113.54 0 0 0 5.82 11.46l9.89 17.42h4.07v-34.34h-3.79Z" class="colorfff svgShape"/><path fill="#ffffff" d="M1760.73 1362.48c0 3.68 0 7 .21 10.35-1.17-2.48-2.51-5-4-7.71l-10.2-17.74h-5.56v35.81h5.27v-15.41c0-4.23-.05-7.56-.17-10.74 1.18 2.45 2.62 5.18 4.43 8.35l10.1 17.8h5.19v-35.81h-5.27Zm.74 15.2 1.24-.67v-.48c-.38-4.73-.46-9-.46-14v-13.63h2.31v32.86h-2.9l-9.68-17a107.82 107.82 0 0 1-5.78-11.38l-.28-.65-1.31.48v.55c.23 4.29.32 8.38.32 14.12v13.93h-2.31v-32.86h3.22l9.77 17a99.73 99.73 0 0 1 5.56 11.08Z" class="colorfff svgShape"/><path fill="#ffba55" d="M1081.13 1957.24h53.38v53.38h-53.38z" class="colorffba55 svgShape"/><path fill="#10405f" d="M2464 394.32c-95 1.87-170.5 79.32-168.66 173 1.7 86.58 68.9 156.71 154.08 165.36l23.22 36 22.68-37.38c83.06-13.44 145.7-85.36 144-170.77-1.86-93.65-80.32-168.08-175.32-166.21Z" class="color10405f svgShape"/><path fill="#16a3db" d="M2462.75 351c-95 1.87-170.5 79.33-168.66 173 1.7 86.59 68.9 156.72 154.07 165.36l23.23 36 22.68-37.36c83.06-13.44 145.7-85.35 144-170.76-1.83-93.65-80.33-168.07-175.32-166.24Z" class="color16a3db svgShape"/><path fill="#ffffff" d="m2523.89 439.49-22.05-11.42-36.48 70.5-72.54-33.04-10.29 22.6 71.41 32.52-41.97 81.1 22.06 11.41 42.53-82.2 83.93 38.22 10.29-22.6-82.79-37.71 35.9-69.38z" class="colorfff svgShape"/><path fill="#fe5a2c" d="M1499.73 2220.06h127.98v127.98h-127.98z" class="colorfe5a2c svgShape"/><path fill="#ffba55" d="M1192.38 1437.79h127.98v127.98h-127.98z" class="colorffba55 svgShape"/><path fill="#4cbfbc" d="M1271.2 751.57h127.98v127.98H1271.2z" class="color4cbfbc svgShape"/><path fill="#16a3db" d="M972.66 1692.99h90.93v90.93h-90.93z" class="color16a3db svgShape"/><path fill="#ffba55" d="M3259.5 1536.22h90.93v90.93h-90.93z" class="colorffba55 svgShape"/><path fill="#fe5a2c" d="M3555.1 2203.91h152.24v152.24H3555.1z" class="colorfe5a2c svgShape"/><path fill="#ffba55" d="M2452.23 2538.83h90.93v90.93h-90.93z" class="colorffba55 svgShape"/><path fill="#16a3db" d="M1130.16 2561.03h90.93v90.93h-90.93z" class="color16a3db svgShape"/><path fill="#ff9a15" d="M3583.17 1306.95h53.38v53.38h-53.38z" class="colorff9a15 svgShape"/><path fill="#ffba55" d="M3552.17 1720.37h53.38v53.38h-53.38zM1655.15 2540.58h53.38v53.38h-53.38zM3123.24 552.45h53.38v53.38h-53.38zM3308.82 2542.54h53.38v53.38h-53.38z" class="colorffba55 svgShape"/><path fill="#ffffff" d="M1458.58 1700.73h97.67v97.67h-97.67zM1925.96 1543.37h64.49v64.49h-64.49zM1988.58 1350.29h38.4v38.4h-38.4zM2735.13 1085.15h38.4v38.4h-38.4zM2290.01 781.69h38.4v38.4h-38.4z" class="colorfff svgShape"/><path fill="#4cbfbc" d="M1905.09 1091.98h31.31v31.31h-31.31z" class="color4cbfbc svgShape"/><path fill="#ffffff" d="M3037.17 2241.95h97.67v97.67h-97.67z" class="colorfff svgShape"/><path fill="#fe5a2c" d="M2716.82 728.45h97.67v97.67h-97.67z" class="colorfe5a2c svgShape"/><path fill="#16a3db" d="M3275.87 2063.04h64.83v64.83h-64.83z" class="color16a3db svgShape"/><path fill="#4cbfbc" d="M2892.68 2769.7h54.47v54.47h-54.47z" class="color4cbfbc svgShape"/><path fill="#ffba55" d="M1919.78 2744.87h104.13V2849h-104.13z" class="colorffba55 svgShape"/><path fill="#ff6440" d="m2902.18 1523.33-2.32 3.35-10.58 44.84 4.1 61.48s12-60.45 15.07-82.82c1.4-10.11-1.18-20.39-4.42-28.63a6.36 6.36 0 0 0-1.85 1.78Z" class="colorff6440 svgShape"/><path fill="#911a20" d="M3185.39 2010.2c-3.61-1-7.23-2.07-10.85-3.09.12 3.69.25 7.38.37 11.07Z" class="color911a20 svgShape"/><path fill="#911a20" d="m3293.39 1905.51-55.74 6.73-26.9 3.25c-8.8 1.07-18 1.44-26.68 3.28-9.18 2-12.16 9-11.91 17.71.26 8.87.6 17.73.9 26.6l1.48 44c3.62 1 7.24 2 10.85 3.09l-10.48 8c-.12-3.69-.25-7.38-.37-11.07q-60.84-17.28-122.8-30.15c-10.39-2.16-14.84 13.79-4.4 16q67.45 14 133.65 33.25c5 1.47 10.65-2.63 10.47-8q-.81-24.23-1.63-48.45-.39-11.88-.8-23.75l-.22-6.65a40.78 40.78 0 0 0 .08-4.64 12.55 12.55 0 0 0-1.83.34q1.77-3.36 1.58-1.16a2.57 2.57 0 0 1 .25.82c.23 0 .47-.07.71-.09 1.92-.29 3.85-.47 5.77-.7l98-11.84c4.44-.54 8.28-3.42 8.28-8.28.02-4.07-3.79-8.8-8.26-8.29Z" class="color911a20 svgShape"/><path fill="#911a20" d="M3187.06 1935a12.55 12.55 0 0 1 1.83-.34 2.57 2.57 0 0 0-.25-.82q.2-2.17-1.58 1.16ZM3064.11 1737.55l.66-1.26c.06-.08.12-.18.18-.28a6.49 6.49 0 0 0-1.44-.85ZM3123.83 1783c-2.73 2.16-5.43 4.33-8.14 6.5l9.81 6.5q-.84-6.45-1.67-13Z" class="color911a20 svgShape"/><path fill="#911a20" d="M3177.55 1501.43c-19 35-38.89 69.54-58.45 104.23-21.6 38.32-43.35 76.57-64.65 115-1.56 2.81-3.24 5.6-4.63 8.49-2.52 5.24-3.14 10.86.42 15.79 3.18 4.4 9 7.17 13.44 10.12l52 34.43c2.71-2.17 5.41-4.34 8.14-6.5q.83 6.49 1.67 13l-9.81-6.5q-49.7 39.81-96.44 83.12c-7.82 7.26 3.9 18.94 11.71 11.71q50.51-46.84 104.57-89.63c4.44-3.51 2.29-10.36-1.68-13q-26.14-17.32-52.31-34.63l-12.68-8.4c-.28-.19-2.43-1.71-3.91-2.71-.06.1-.12.2-.18.28l-.66 1.26-.6-2.39a6.49 6.49 0 0 1 1.44.85c.13-.24.25-.52.36-.73 1.22-2.24 2.46-4.47 3.69-6.7q13-23.43 26.19-46.76 35.63-63.33 71.32-126.62c8.49-15.11 17-30.19 25.33-45.41 5.1-9.3-9.18-17.67-14.28-8.3ZM1723.48 2115.13l-1.59-10.25c-3.52 1.76-7.05 3.52-10.56 5.31ZM1693.93 2022.67q-2.21-2.34-1.56-.51c0 .13.05.28.08.42.62-.03 1.45-.04 1.48.09Z" class="color911a20 svgShape"/><path fill="#911a20" d="M1857.75 2042.89q-69 28.53-135.86 62l1.59 10.25-12.15-4.94c3.51-1.79 7-3.55 10.56-5.31l-9.21-59.42q-1.25-8.12-2.51-16.22c-.82-5.3-.86-11.79-3.82-16.47-4.26-6.73-11.6-6.91-18.69-6.5-18.48 1.07-37 1.46-55.51 2-53.84 1.46-107.68 2.46-161.52 3.9-20.17.54-40.4.87-60.54 2.2-10.58.71-10.65 17.26 0 16.55 42.16-2.8 84.61-2.84 126.85-3.81 47.13-1.09 94.31-1.75 141.42-3.79q5.34-.22 10.66-.54c1-.06 2-.07 3-.18-.55.06-.17 0 .38 0 0-.14 0-.29-.08-.42q-.64-1.83 1.56.51c0-.13-.86-.12-1.48-.09.11.5.21 1 .28 1.51 1.1 6.34 2 12.73 3 19.09q5.91 38.17 11.83 76.35c.87 5.62 7.91 7.11 12.16 4.95q69.93-35.57 142.47-65.63c4.13-1.7 7.07-5.49 5.78-10.18-1.06-3.93-6.01-7.53-10.17-5.81ZM1788.41 1797.31a4.35 4.35 0 0 1-.7 1c.47.84.7.51.7-1ZM1729.64 1877.68q4-3.93 8.09-7.83-4.87-2.6-9.76-5.17.83 6.5 1.67 13Z" class="color911a20 svgShape"/><path fill="#911a20" d="M1865.86 1943.85q-62.68-39.35-128.13-74-4.05 3.9-8.09 7.83-.84-6.51-1.67-13 4.89 2.57 9.76 5.17c20.63-19.87 41.66-39.46 61.56-60 5.34-5.51 7.14-12.47 3.12-19.42s-10.41-13.07-15.41-19.23l-30.4-37.2-35.27-43.12c-2.83-3.47-8.76-2.94-11.7 0-3.42 3.42-2.84 8.23 0 11.7l71.75 87.72c1.62 2 3.29 3.94 4.86 6l1.22 1.49c.09.21.18.38.25.52a4.35 4.35 0 0 0 .7-1c0 1.51-.23 1.84-.7 1-1 1.1-2.5 2.17-3.35 3l-5.54 5.39-19.37 18.87-41.51 40.43c-3.68 3.59-3 10.54 1.67 13q70.48 36.85 137.9 79.17c9.04 5.65 17.36-8.67 8.35-14.32Z" class="color911a20 svgShape"/><path fill="#4cbfbc" d="m2986.56 1951.05-24.19-91c-.95 1-1.9 1.94-2.85 2.89l-23-16.67 4.24-61.72 9.51-176.68 14-88.08-3.7-33.15-2.48-10.43a6.45 6.45 0 0 0-9.71-4 6.36 6.36 0 0 0-1.85 1.78l-2.32 3.35-10.58 44.84-1.15 4.91-4-8.38-7.28-197.53a42.4 42.4 0 0 0-43.94-40.81l-113.71 4.19a75.65 75.65 0 0 0-55.52 56.8l10.61 287.66a42.33 42.33 0 0 0 16.79 32.25 13.17 13.17 0 0 0 0 2.35c.72 7.72 7.78 14.72 7.78 14.72l39.63 4.7 32.29 6.21 1.79 95.34 29.06 46.76-14.54 36.35-.14-.78s-.45 2.17-1.26 6.12c-.08-.15-.12-.24-.12-.24l-2.71 14.17c-.62 3.06-1.3 6.43-2 10.08-31-74.42-64.85-150.64-84.55-194.53-6.31-17.35-12-30.32-16.93-37.47a122.93 122.93 0 0 0-14.46-17.07l-2.83-41.57-9.73-25.94-32-36.09-22-1.38-7-8.38c-5.06-6.35-9-10.76-9-10.76l-26.74-12.16-30.73-1.06s-14-23.59-23.18-34.22c-2.71-3.15-6-10.9-9.25-20.25l30.88-52.92c5.21-10.6 9.45-23.69 10.14-35.47l1.42-13.51a45.79 45.79 0 1 0 38.3-83.17 63.75 63.75 0 0 0-18.6-104.23l2.43-23.07 2.08-19.84a183.79 183.79 0 0 0 20.55-10.08l53.24-71.83 22.59-82.34s-66.55 26.91-83 24-33.32-19.71-33.32-19.71l44.8-48.23s-84-3.89-104.91-3.12-81.48-43.38-81.48-43.38-72.3-23.23-107.79-6.78-69.38 74.13-69.38 74.13L2235 919.73a44.3 44.3 0 0 0-58.09-.77l-59.26 50.11-39.89 127.45a110.18 110.18 0 0 0-3 54.08l17.52 89.64 69.95 73.9 61 47.43 32 37.91c-1.81 17.84-4.26 52-5.84 75.06-22.62-20.08-36.74-33.45-36.74-33.45l40.92-25.75-50.3 10.66-71.55 152.63-23.45 14.92 2.69.47-87.74 59-30.16 72.6s16.39 117.06 27.59 212.51l10.14 241.3 3.75 182.86 51.92 41.41 57.82-8.3c13-1.21 27.23-2.85 42-4.78l11.87-.66 37.24-6.36c39.91-6.16 80.06-13.26 111.21-19l179.53-30.7c9.2-2.53 349.32-88 349.32-88s0-.18-.1-.5c4.08-1.21 7.32-2.32 9.5-3.12 42.85-11.67 65.8-33.88 79.94-56.26 10-15.74 22-51.77 20.34-70.32l-12.05-138.48a197.46 197.46 0 0 0 13.56-25.64ZM2545 1547.5l-1.64-2-13.36-4.8c-12.81-5.68-20.69-8.91-20.69-8.91l-3.17.41-.41-.15a139.92 139.92 0 0 1 3.33-33.48c.36-.29.7-.6 1.05-.9l2 7 34 43.32Z" class="color4cbfbc svgShape"/><path fill="#d67500" d="M2862.15 1383.39a42.4 42.4 0 0 0-43.94-40.82l-113.71 4.19a42.42 42.42 0 0 0-40.82 43.94l10.61 287.66a42.4 42.4 0 0 0 43.94 40.81l113.71-4.19a42.4 42.4 0 0 0 40.81-43.94Z" class="colord67500 svgShape"/><path d="M2876.85 1370.53a42.4 42.4 0 0 0-43.94-40.82l-113.71 4.19a42.42 42.42 0 0 0-40.82 43.94L2689 1665.5a42.4 42.4 0 0 0 43.93 40.81l113.72-4.19a42.4 42.4 0 0 0 40.81-43.94Z" fill="#000000" class="color000 svgShape"/><path fill="#16a3db" d="m2464.93 1581.1-378.57 48.9-107.52 72.27-30.16 72.6s33 235.56 37.34 310.84 10.4 185.13 4.78 224.63 3 93.91 3 93.91l45.11 41.36 114.92-6.39 328-56.1c9.2-2.53 349.32-88 349.32-88s-108.42-517.44-151.75-580.75-214.47-133.27-214.47-133.27Z" class="color16a3db svgShape"/><path fill="#10405f" d="M2679.36 1714.39c-125.16-59.15-127.48 186.89-127.48 186.89s105.21 277.42 139.25 346.25c43.74 88.44 152.59 42.76 152.59 42.76s33.16-67.36.66-176.61-165.02-399.29-165.02-399.29Z" class="color10405f svgShape"/><path fill="#ffa992" d="M2467 1539.43s-158.35-185.88-254.44-102.43c-2.12 1.84-9.14 110.52-9.14 110.52S2405 1725.17 2491.1 1700c0 0-45.36-94.78-24.1-160.57ZM2913.74 1525.51a6.45 6.45 0 0 0-9.71-4 6.36 6.36 0 0 0-1.85 1.78l-2.32 3.35-10.58 44.84-1.15 4.91q-6-12.43-11.78-24.88c-3.27-7-9.28-6.79-15.8-9-6-2-13.94-2.8-20.15-4a132.67 132.67 0 0 0-25.77-2.72c-6.69-.09-13.36-.33-20.05-.61q-12.59-.51-25.16-1.24c-8.53-.52-15.91 9.71-19.67 16-3 5-6.76 10.45-8.76 16.26a3.19 3.19 0 0 0 1.12 3.68 3.25 3.25 0 0 0 4.33-.26c.81-.79 1.58-1.56 2.32-2.24 1.2-1.09 12.33-12.54 14.19-12.2.63.12 35.85 3.69 35.85 3.69l24.65 6.56 22.81 12.57-3.81-.43-15.71-1.77-54.78-6.16-64.08 34.36c5.29 9.68 11.58 13.13 11.58 13.13 22.39 5.35 61.16-13.34 61.16-13.34l26.26 10.13 33.71 46.23 6.53 9c-1.16-1.35-31.7-37.17-39.87-45.34a23.38 23.38 0 0 0-3.86-3.11l-33-.29c-6.37 2.65-13.74 5.94-19.67 9.17-13.3 7.28-36.64 9.37-50 14.18-5.61 2-6.58 6.47-5.82 11 1.06 6.21 5.45 12.5 5.45 12.5l34.44 5.21a35.41 35.41 0 0 0 21.7-3.65l17.57-9.21 33.75 40.1 7.52 8.93-41.71-9.6-23-5.28-7.37.82-43 4.74c-7.65 3.83-9.65 8.9-9.19 13.69.72 7.72 7.78 14.72 7.78 14.72l39.63 4.7 32.29 6.21 1.8 95.34 29 46.76-15 37.63a90.52 90.52 0 0 0-1.92 22.5c2.3 57.34 60.92 87.27 60.92 87.27 41.88 32.36 57.19-53.9 57.19-53.9l-10.64-78.62 4.24-61.72 9.51-176.68 14-88.08-3.7-33.15Z" class="colorffa992 svgShape"/><path d="m2454.77 1698.15-2.4.58a1138.84 1138.84 0 0 1 20 114.29c13.53 108.34 6.48 177-1.81 215.45l2.41.52c15.11-70.08 9.34-156.31 1.85-216.31a1148.1 1148.1 0 0 0-20.05-114.53Z" fill="#000000" class="color000 svgShape"/><path fill="#10405f" d="m2919.05 1915.07-26.91-19.5c7.65 84-26.43 117.12-26.43 117.12-62.75-3.38-78.75-96.43-78.75-96.43s-41.51 201.06-49.14 271.94 10.27 111.21 10.27 111.21c106.87 5.21 150.31-29.25 172.36-64.15 10-15.74 22-51.77 20.34-70.32Z" class="color10405f svgShape"/><path fill="#ff6440" d="M2250.39 1452.69s49.86 136.56 213.8 158.36c0 0-12.84-90.78 4.77-128.4s-171.69-95.65-218.57-29.96Z" class="colorff6440 svgShape"/><path fill="#ffa992" d="M2454.19 1068.6c-7-4.86-14-9.38-21-13.39a179.35 179.35 0 0 0-23.39-11.49c-33.58-13.27-79.88 5.17-117.87 27a507.81 507.81 0 0 0-68 47.38s-90.64 162.87 2.37 253.76l39.58 85c6.65 13.6 35.95 41 49.09 48.5l57 33.31c19.51 11.21 41 21.06 63.38 18.63l8.63-.93a40 40 0 0 0 31.61-22.13l47.64-81.66c5.21-10.6 9.45-23.69 10.14-35.47l23.55-224 2.9-27.64s-51.05-58.79-105.63-96.87Z" class="colorffa992 svgShape"/><path fill="#ff6440" d="m2470.12 1386.73 23.69-29.22-30.59-21.4 6.9 50.62z" class="colorff6440 svgShape"/><path d="M2462.21 1412.63c-5.74.22-63.09 29.88-80.53 39l2.24 4.31c27.79-14.47 73.48-37.61 78.45-38.4 3.49.53 19.88 15 33.15 28.11l3.43-3.45c-.08-.07-7.46-7.38-15.44-14.57-16.79-15.16-19.85-15.05-21.3-15Z" fill="#000000" class="color000 svgShape"/><path fill="#911a20" d="M2402.05 1265.53c-4.11.15-7.09 9.79-6.66 21.54s4.12 21.13 8.23 21 7.09-9.79 6.65-21.53-4.11-21.16-8.22-21.01ZM2509.62 1265.53c-4.11.15-7.09 9.79-6.66 21.54s4.12 21.13 8.23 21 7.09-9.79 6.65-21.53-4.11-21.16-8.22-21.01Z" class="color911a20 svgShape"/><path d="M2425.6 1213.29a101.32 101.32 0 0 0-83.33-15.48c-3.08.79-1.77 5.55 1.32 4.77a96.5 96.5 0 0 1 79.52 15c2.59 1.82 5.06-2.46 2.49-4.29Z" fill="#000000" class="color000 svgShape"/><path fill="#ff6440" d="M2475.9 1448.25a8.37 8.37 0 0 0-4.37-2.86 13.41 13.41 0 0 0-16.31 8c-8 20.19-25 72.06-1.91 103.69 0 0 8.35-4.62 13.69-17.67 3.88-9.46 3.17-53.09-1.38-77.64l21.66 30.58ZM2787.57 1731.2c-14.57-23.7-71.59-20.75-96.48-18.24.72 7.72 7.78 14.72 7.78 14.72l39.63 4.7 32.29 6.21 1.8 95.34 29 46.76-15 37.63a90.52 90.52 0 0 0-1.92 22.5l13.49 20.72 24.67-75.22-27-50.53s10.55-74.04-8.26-104.59ZM2768.18 1639.53c-8.59 11.85-49.32 14.6-73.3 15.18 1.06 6.21 5.45 12.5 5.45 12.5l34.44 5.21a35.41 35.41 0 0 0 21.7-3.65l17.57-9.21 42 50.17c11.36-.43 10.33-11.44 10.33-11.44-27.05-52.29-58.19-58.76-58.19-58.76Z" class="colorff6440 svgShape"/><path fill="#ff6440" d="M2779.35 1585.47c-14.17 9.55-46.1 15.41-71.4 18.72 5.28 9.56 11.51 13 11.51 13 22.39 5.35 61.16-13.34 61.16-13.34l26.26 10.13 33.71 46.23 9.85 11h15.88l-35.26-69.34Z" class="colorff6440 svgShape"/><path fill="#ff6440" d="M2833.31 1558.74s-59.51-11.35-72.39-8.28c-8.82 2.1-15.49 12.84-18.81 19.4a3.25 3.25 0 0 0 4.33-.26c.81-.79 1.58-1.56 2.32-2.24 1.2-1.09 12.33-12.54 14.19-12.2.63.12 35.85 3.69 35.85 3.69l24.65 6.56 22.81 12.57 27.51 41.48-9.16-38.33Z" class="colorff6440 svgShape"/><path fill="#10405f" d="m2309.01 1627.62-63.33 5.87-130.19-23.46-51.6 32.84 181.79 31.67 44.56-19.94 22.29 39.87 142.88 3.97-129.98-33.29-16.42-37.53z" class="color10405f svgShape"/><path fill="#fe5a2c" d="m2209.18 1464.65-50.29 10.67-72.53 154.68 153 26.31 54.49-16.33 13.16 28.16L2461 1701c-102.48-30.38-292.74-210.6-292.74-210.6Z" class="colorfe5a2c svgShape"/><path fill="#10405f" d="m2460.3 1581 6.45 51.33c3.52 26.38 12.13 34.47 12.13 34.47 7.77 5.69 38.39-14.47 38.39-14.47l10.14-22.29-28.4-35.24Z" class="color10405f svgShape"/><path fill="#ff6440" d="M2410.5 1627.77c-18.8 9.54 13.47 61.73 13.47 61.73 68.46 35.63 51.62-30.87 51.62-30.87s-46.29-40.4-65.09-30.86Z" class="colorff6440 svgShape"/><path fill="#ffcac0" d="M2889.93 1681.07c-9.68 0-21.48 43.72-21.48 96s-5.31 98.66 4.38 98.66 17.54-42.4 17.54-94.71 9.25-99.95-.44-99.95ZM2852 1699.84c-4.21-1.5-10.85 6.26-14.82 17.35s-3.77 21.3.44 22.81 10.85-6.26 14.82-17.35 3.82-21.3-.44-22.81Z" class="colorffcac0 svgShape"/><path fill="#ff6440" d="M2454.19 1068.6c-7.06-4.57-14.08-9-21-13.39-48.92-30.94-90.74-55.23-90.74-55.23a710.74 710.74 0 0 0-50.52 70.75c-43.41 69.19-88.64 168.14-45.45 241.73 0 0 33.52-7.64 60.44-63.81a330.08 330.08 0 0 1 25.09-43.23l38.22-56 5.29-21.16 85.14 66.37a19.79 19.79 0 0 0 11.08 4.14c15.3.82 55.39 2 85.18-5.65l2.9-27.64s-51.05-58.8-105.63-96.88Z" class="colorff6440 svgShape"/><path fill="#911a20" d="M2572.47 1033.07c-16.4-2.89-33.33-19.73-33.33-19.73l44.8-48.23S2500 961.22 2479 962s-81.48-43.38-81.48-43.38-72.3-23.23-107.79-6.78-69.35 74.16-69.35 74.16l-29.79-16.91a44.29 44.29 0 0 0-58.09-.78l-59.26 50.11-39.89 127.45a110.33 110.33 0 0 0-3 54.09l17.52 89.63 69.95 73.9 61 47.43 43.84 51.95 51.33 2.76s-86.79-206.4-92-222.5l55.29 46.86 43.72-13.29 29.9-73.3 53.08-76.48-4.3-53.4 27.47 50.22 95.43 61.69s44.53 7.67 97-22.21l53.24-71.83 22.59-82.34s-66.53 26.95-82.94 24.02Z" class="color911a20 svgShape"/><path fill="#ffa992" d="m2182 1243.09-13.13 18.44a36.84 36.84 0 0 0-6.25 27.93l4.66 25.81a28.63 28.63 0 0 0 6.25 13.32l29.21 34.83 31.34 6.43 3.21-79.9s-19.29-49.36-55.29-46.86Z" class="colorffa992 svgShape"/><path fill="#ff6440" d="m2208.6 1333.87 11.44-24.53-20.43-21.26 8.99 45.79z" class="colorff6440 svgShape"/><path d="M2553.44 1195.86a87 87 0 0 0-71.21 14.74c-2.17 1.61-.05 5.29 2.14 3.66a83 83 0 0 1 67.94-14.31c2.69.61 3.79-3.47 1.13-4.09Z" fill="#000000" class="color000 svgShape"/><circle cx="2325.11" cy="1370.82" r="52.29" fill="#fe5a2c" opacity=".65" class="colorfe5a2c svgShape"/><circle cx="2554.65" cy="1362.32" r="45.79" fill="#fe5a2c" opacity=".65" transform="rotate(-9.22 2553.92 1361.988)" class="colorfe5a2c svgShape"/><path fill="#ffffff" d="M2426 1230.17a68.12 68.12 0 1 0-46.43 118h2.57a68.12 68.12 0 0 0 43.86-118Zm-2.86 90.32a59.37 59.37 0 1 1-45.69-99.74h2.24a59.38 59.38 0 0 1 43.45 99.79ZM2526.37 1206.5a68.12 68.12 0 0 0 2.47 136.19h2.55a68.12 68.12 0 0 0-5-136.15Zm46 108.48a59.37 59.37 0 1 1-45.69-99.74h2.22a59.37 59.37 0 0 1 43.47 99.78Z" class="colorfff svgShape"/><path fill="#ffffff" d="M2237.09 1281.82h78.98v8.75h-78.98z" transform="translate(-112.24 222.87)" class="colorfff svgShape"/><path fill="#ffffff" d="M2443.29 1272.95h21.89v8.75h-21.89z" transform="translate(-45.45 91.41)" class="colorfff svgShape"/><path fill="#b21424" d="M2160.65 1036.74c-26.29 0-79 43.13-79 96.83s-4.47 102.89 21.83 102.89 70.67-53.34 70.67-107 12.79-92.72-13.5-92.72ZM2100.93 1261.06c-10.75 5.46-10.39 27.72.79 49.72s29 35.41 39.7 30 10.39-27.72-.79-49.72-28.96-35.46-39.7-30ZM2492.19 1118c-24-5.86-68.85-31.45-71.71-19.74s36.32 48.59 60.29 54.46 89.62-12.61 92.48-24.32-57.09-4.55-81.06-10.4Z" class="colorb21424 svgShape"/><path fill="#10405f" d="M2163.66 1705.31s102.17 71.71 127.71 112S2455.45 2093 2455.45 2093l-93.36-279.58s-171.9-114.99-198.43-108.11ZM1974.08 1935.17l19.7 469.12 45.11 41.36c57 10.47 321.24-42.89 321.24-42.89-308.45-34.38-386.05-467.59-386.05-467.59Z" class="color10405f svgShape"/><path fill="#10405f" d="M1992.56 1892.36s166.45 376.18 291.89 452.83c0 0 86.67 37.77 120 36.22s100.66-3 164.22-36.25 77.49-102.24 77.49-102.24l1.55-94.51-187.47 35.64Z" class="color10405f svgShape"/><path fill="#06bcf4" d="m2503.05 1920.68-47.6 172.26-29.08-49-25-53.12-99.34-160.74a210.69 210.69 0 0 0-43.82-50.68l-78.35-65.79c-23.07-16.93-61.87-20.36-90.18-16.22l-18.06 2.64a102.86 102.86 0 0 0-75 40.14 78.75 78.75 0 0 0-15.45 58.66l13.47 96.8 80.42 154.69a202.83 202.83 0 0 0 24.28 36.43l174 208.33 70.56 50.61 81.51 21.35 101.31-19a72.87 72.87 0 0 0 31.82-14.49 273.36 273.36 0 0 0 74.78-92l24.49-265.31s-5-4.43-13.82-10.81c-25.26-18.36-81.89-52.83-140.94-44.75Z" class="color06bcf4 svgShape"/><path fill="#ffa992" d="m2652.34 1629.81-32-36.09-22-1.38-16.06-19.14-26.72-12.2-30.73-1s-14-23.6-23.18-34.23-24.63-73.61-24.63-73.61l-5.27.2a16.14 16.14 0 0 0-15.09 12.36l-5.64 23.67a16.42 16.42 0 0 0 .19 8.38l16.55 57.24 59.65 76-.4.88-9.74 21.41s-24.57 17.35-34.54 14.43-42.71-29.12-42.71-29.12c-12-12.39-16.52-4.76-18.19 3.68a62 62 0 0 0-.95 12.37l1.85 4.71a81.78 81.78 0 0 0 24.7 33.61l8 6.43 80.84 58.25 9 59a65.45 65.45 0 0 0 25.52 25.53c37.21 21 89.67 7.48 89.67 7.48l11.19-53-9.53-139.93Z" class="colorffa992 svgShape"/><path fill="#ff8269" d="M2515.19 1721.41c-22.42-5.94-78.41-64.22-93.36-80.1a62 62 0 0 0-.95 12.37l1.85 4.71a81.78 81.78 0 0 0 24.7 33.61l8 6.43 80.84 58.25 9 59a65.45 65.45 0 0 0 25.52 25.53l-3.56-80.06s-26.04-32.86-52.04-39.74ZM2529 1610.84c-70.38-64.44-72.9-123.33-67.22-154.59a16 16 0 0 0-5.16 8.46l-5.64 23.67a16.42 16.42 0 0 0 .19 8.38l16.55 57.24 59.65 76-.4.88c10.41 9.26 17.23 15.15 17.23 15.15 4.21-21.84-15.2-35.19-15.2-35.19Z" class="colorff8269 svgShape"/><path fill="#ff8269" d="M2527.41 1630s-4.53 22.66-25 31.42c0 0 47 10.7 40.23-31.8ZM2524.83 1560l38.62 56.77c-2.77-21.5-38.62-56.77-38.62-56.77ZM2612 1618.14c-4.16-16.63-29.67-44.94-29.67-44.94Z" class="colorff8269 svgShape"/><path fill="#ffcac0" d="M2640.86 1645.13c-8.38.59-27 79.43-23.89 123.58s25 45.19 33.35 44.61 12.69-36.86 9.6-81-10.67-87.78-19.06-87.19ZM2613.73 1629.94c-5.59-2-14.39 8.3-19.66 23s-5 28.25.58 30.25 14.39-8.29 19.66-23 5.01-28.25-.58-30.25Z" class="colorffcac0 svgShape"/><path fill="#10405f" d="m2340.24 2224.9 39.93 93.16s3.33-154.93 75.28-225.11c0 .05-94.45 69.56-115.21 131.95ZM2305.85 2090.5c63.72-55.07 120.52-46.58 120.52-46.58-72.79-67.1-120.52 46.58-120.52 46.58Z" class="color10405f svgShape"/><path fill="#4cbfbc" d="m1985 2161.76 5.13 249.82 51.92 41.41 171.12-24.55C2004.29 2421 1985 2161.76 1985 2161.76Z" class="color4cbfbc svgShape"/><path fill="#0896c1" d="M2506.75 2321.65c-141.84 44.94-182.18-26.26-182.18-26.26s-206.66-306.86-269.22-420.52c-38.83-70.55-40.36-123.72-36.68-155.24-5.59 4.74-17.52 14.6-22.05 20.52a78.75 78.75 0 0 0-15.45 58.66l13.47 96.8 80.42 154.69a202.83 202.83 0 0 0 24.28 36.43l174 208.33 70.56 50.61 81.51 21.35 101.31-19a72.87 72.87 0 0 0 31.82-14.49 273.36 273.36 0 0 0 74.78-92l24.49-265.31s-5-4.43-13.82-10.81c-1.39 68.32-15.05 317.59-137.24 356.24Z" class="color0896c1 svgShape"/><path fill="#ffffff" d="m2530.71 1813.65-12.61 14.95-9.54 58.34-5.51 33.74 38.24 13.72 116.57 41.82 18.08-9.89.14-1.45 10.49-103s-66.25-27.72-115.87-41.14c-15.97-4.29-30.22-7.12-39.99-7.09Z" class="colorfff svgShape"/><path fill="#4cbfbc" d="m2518.1 1828.6-15 92.08 38.24 13.72c.8-43.6 19.15-90.61 29.41-113.64-16-4.31-30.22-7.14-40-7.11Z" class="color4cbfbc svgShape"/><path fill="#4cbfbc" d="m2510.71 1885.32-2.15 1.62-5.51 33.74 38.24 13.72 116.57 41.82 18.08-9.89.14-1.45c-86.95 7.53-165.37-79.56-165.37-79.56Z" class="color4cbfbc svgShape"/><path fill="#ffffff" d="M2918 1909.35c-41.42 42.88-72.6 49.31-94.26 43.63-25.85-6.79-38.15-30.84-38.15-30.84l-16.63 87c102.35 163.11 173.35-8.32 173.35-8.32l-.12-.46Z" class="colorfff svgShape"/><path fill="#4cbfbc" d="M2804.31 2027.28c-3-18.74 9.77-52.33 19.42-74.3-25.85-6.79-38.15-30.84-38.15-30.84l-16.63 87c102.35 163.11 173.35-8.32 173.35-8.32l-.12-.46c-66.4 83.69-133.46 54.84-137.87 26.92Z" class="color4cbfbc svgShape"/><path fill="#9cecff" d="M2107.81 1737.73c-35.85 24.63 44.93 72.06 102.17 155.39s85.48 135.31 121.33 110.68-2.35-89.08-59.6-172.41-128.05-118.29-163.9-93.66ZM2601.62 2049.71c-19.95-7.66-38.59 37.52-65.77 108.33s-89.6 129.7-69.65 137.36 97.93-46.87 125.11-117.69 30.26-120.34 10.31-128Z" class="color9cecff svgShape"/><path fill="#04273a" d="M2854.35 2223.36c-57.68 16.27-196.49-247.14-196.49-247.14l-10.16 172.19c61 251.88 243.62 116.36 243.62 116.36 83.73-45.35 38.65-214.11 38.65-214.11s-17.97 156.44-75.62 172.7Z" class="color04273a svgShape"/></g></svg>
